<?xml version="1.0" standalone="no"?>
<!DOCTYPE svg PUBLIC "-//W3C//DTD SVG 20010904//EN"
 "http://www.w3.org/TR/2001/REC-SVG-20010904/DTD/svg10.dtd">
<svg version="1.0" xmlns="http://www.w3.org/2000/svg"
 width="1536.000000pt" height="1536.000000pt" viewBox="0 0 1536.000000 1536.000000"
 preserveAspectRatio="xMidYMid meet">

<g transform="translate(0.000000,1536.000000) scale(0.100000,-0.100000)"
fill="#000000" stroke="none">
<path d="M6318 12453 c7 -3 16 -2 19 1 4 3 -2 6 -13 5 -11 0 -14 -3 -6 -6z"/>
<path d="M6170 12388 c-88 -50 -147 -90 -122 -83 13 4 38 16 55 27 18 11 57
35 87 54 69 42 54 43 -20 2z"/>
<path d="M7499 12240 c-105 -7 -230 -21 -299 -35 -88 -17 -192 -40 -270 -60
-107 -26 -412 -125 -420 -135 -3 -4 -23 -13 -44 -20 -56 -18 -169 -72 -305
-147 -24 -13 -50 -22 -57 -19 -8 3 -14 -1 -14 -11 0 -12 -3 -13 -14 -4 -11 9
-20 10 -35 1 -27 -14 -27 -24 -1 -17 11 3 20 2 20 -3 0 -7 -33 -19 -51 -20
-10 0 -5 34 6 42 14 11 -2 21 -21 14 -13 -5 -14 -10 -6 -18 14 -14 -2 -37 -27
-39 -9 -1 -3 -4 12 -8 l28 -6 -29 -18 c-27 -15 -32 -16 -45 -2 -9 8 -31 15
-51 15 -19 0 -38 5 -41 11 -11 16 4 59 20 59 7 0 17 5 20 10 4 6 -7 10 -24 10
-23 0 -31 -5 -32 -17 0 -12 -4 -8 -10 9 -6 16 -19 28 -32 30 -27 4 -29 31 -4
36 12 2 20 -3 24 -16 6 -24 38 -32 90 -22 l38 7 -42 8 c-24 4 -43 11 -43 16 0
5 -6 9 -14 9 -8 0 -16 5 -18 12 -2 6 -17 13 -34 14 -16 2 -42 7 -58 11 -26 8
-27 10 -11 23 13 11 21 11 36 2 15 -10 19 -9 19 0 0 20 -43 36 -68 25 -15 -7
-20 -17 -18 -36 2 -14 1 -20 -1 -13 -6 17 -23 15 -23 -3 0 -8 -7 -15 -15 -15
-8 0 -15 3 -15 6 0 8 42 68 53 75 5 4 4 10 -2 14 -15 9 -41 -12 -41 -33 0 -13
-3 -13 -12 -4 -10 10 -7 18 15 38 15 14 32 22 39 18 6 -4 9 -3 6 2 -3 5 5 17
18 27 13 10 24 13 24 8 0 -6 7 -8 15 -5 8 4 15 10 15 16 0 5 -6 6 -12 3 -7 -4
-2 3 11 14 19 18 26 19 39 9 13 -11 14 -9 8 15 -5 20 -3 27 8 27 14 0 42 27
35 35 -13 12 -299 -212 -439 -343 -351 -330 -672 -802 -848 -1247 -70 -177
-153 -455 -176 -590 -2 -16 -9 -55 -15 -85 -49 -258 -58 -736 -17 -970 2 -14
7 -50 10 -80 27 -238 135 -625 242 -870 19 -42 147 -297 173 -344 28 -49 121
-196 146 -231 88 -121 150 -202 214 -280 124 -150 431 -444 562 -538 203 -146
246 -166 79 -37 -36 27 -81 63 -100 80 -19 17 -66 57 -105 90 -150 126 -396
404 -511 575 -53 78 -146 230 -169 275 -10 19 -24 46 -32 60 -27 48 -100 205
-111 238 -9 29 -9 32 4 21 8 -6 22 -28 30 -48 43 -97 87 -181 96 -181 5 0 8
-6 7 -12 -5 -25 21 -93 44 -118 12 -14 37 -50 55 -80 18 -30 30 -44 27 -30 -6
24 -5 24 9 6 8 -10 21 -16 28 -13 10 4 10 6 1 6 -8 1 -13 16 -13 44 1 41 1 42
15 17 8 -14 14 -33 15 -42 0 -13 9 -18 33 -19 29 -2 29 -2 5 -6 -31 -5 -28
-33 3 -33 11 0 19 -7 19 -16 0 -8 -4 -13 -9 -9 -6 3 -15 -4 -21 -15 -6 -11 -7
-21 -3 -22 4 0 13 -2 18 -2 18 -3 75 -31 75 -37 0 -4 -9 -9 -20 -12 -40 -10
-19 -22 38 -21 78 2 82 3 82 14 0 10 -38 7 -95 -7 -14 -3 -11 3 13 22 31 25
32 28 15 40 -12 9 -22 10 -30 3 -7 -5 -20 -8 -30 -5 -15 3 -14 6 7 16 22 10
21 11 -15 5 l-40 -6 39 31 c41 33 56 38 56 19 0 -6 7 -4 18 5 10 10 24 17 31
17 7 0 11 6 8 14 -6 15 26 46 48 46 8 0 15 -4 15 -10 0 -5 9 -10 20 -10 11 0
20 -4 20 -9 0 -5 10 -11 22 -13 l23 -3 -21 -20 c-12 -11 -23 -25 -25 -32 -3
-9 -9 -9 -19 -2 -13 8 -12 11 4 24 11 8 18 16 15 19 -27 23 -94 37 -71 14 18
-18 15 -28 -8 -28 -11 0 -20 -7 -20 -15 0 -8 9 -15 19 -15 11 0 23 -4 26 -10
3 -5 1 -10 -6 -10 -10 0 -10 -3 0 -12 11 -10 14 -10 18 0 3 6 12 12 20 12 12
0 13 -3 4 -14 -9 -10 -8 -16 4 -26 12 -10 15 -10 15 4 0 9 8 16 20 16 11 0 20
-6 20 -14 0 -12 20 -26 36 -26 12 0 1 41 -13 49 -16 9 -16 10 -2 11 9 0 19 7
23 15 3 8 14 15 25 15 31 0 35 19 6 26 -34 8 -85 92 -64 105 8 5 17 9 20 9 9
0 9 60 0 60 -4 0 -12 -5 -19 -12 -8 -8 -15 -8 -27 2 -8 7 -18 10 -22 6 -8 -7
27 -35 45 -36 17 0 15 -20 -3 -20 -34 0 -70 60 -45 75 6 3 10 23 10 43 0 21 4
32 8 25 4 -6 7 -28 6 -47 -1 -25 2 -36 12 -36 9 0 11 6 7 18 -6 15 -5 16 12 2
10 -8 21 -15 24 -15 3 0 5 -26 4 -59 -2 -73 17 -62 25 13 6 66 18 65 25 -1 5
-45 2 -55 -14 -67 -24 -17 -25 -41 0 -41 11 0 21 9 25 23 5 17 8 19 15 8 5 -7
14 -10 20 -7 15 10 14 26 -3 26 -16 0 -26 32 -24 80 1 30 2 31 5 8 4 -25 8
-28 44 -28 21 0 39 -4 39 -10 0 -5 7 -10 15 -10 8 0 25 -10 37 -22 20 -20 23
-21 26 -5 2 9 10 17 17 17 9 0 12 6 9 15 -4 10 -15 12 -36 8 -22 -4 -29 -3
-24 5 4 7 14 12 22 12 20 0 18 28 -3 33 -10 3 -2 5 18 6 20 0 42 8 49 16 7 8
16 15 21 15 5 0 9 -7 9 -15 0 -8 -7 -15 -15 -15 -8 0 -15 -4 -15 -9 0 -5 7
-11 15 -15 8 -3 15 -16 15 -30 0 -28 17 -43 31 -29 6 6 6 25 1 51 -12 52 2 75
42 70 17 -2 31 2 33 10 3 7 -1 10 -9 7 -7 -3 -22 1 -33 9 -17 13 -18 15 -3 16
9 0 19 6 22 13 4 6 4 1 2 -12 -4 -18 -2 -21 7 -12 15 15 88 -64 80 -87 -5 -12
-1 -14 15 -10 15 4 19 2 15 -9 -5 -12 -1 -14 18 -9 23 7 23 6 5 -8 -22 -18
-40 -21 -31 -6 3 6 2 10 -4 10 -5 0 -12 -4 -15 -9 -8 -13 18 -21 50 -15 20 4
25 1 21 -9 -3 -8 -1 -20 5 -28 8 -11 9 -11 5 3 -10 28 22 30 49 1 13 -14 24
-23 24 -20 0 4 16 -9 36 -28 32 -31 54 -44 54 -31 0 3 -42 39 -92 82 -140 116
-294 277 -394 410 -212 283 -381 629 -458 939 -78 310 -90 415 -82 690 7 292
10 317 68 560 160 680 561 1232 1198 1647 267 175 605 303 960 364 143 24 514
27 645 4 312 -54 427 -83 598 -151 335 -132 700 -383 949 -652 138 -149 166
-183 258 -317 200 -290 323 -563 404 -900 95 -391 99 -837 12 -1211 -49 -208
-100 -344 -207 -553 -44 -87 -66 -141 -62 -152 4 -12 3 -15 -5 -10 -7 4 -15 0
-19 -11 -4 -10 -9 -20 -13 -23 -9 -8 -40 -59 -40 -66 0 -3 9 4 20 17 l20 24
-16 -32 c-8 -18 -13 -37 -9 -42 3 -6 -4 -9 -15 -8 -14 1 -19 6 -15 17 9 22 -4
6 -70 -85 -32 -44 -69 -92 -83 -107 -13 -14 -21 -31 -18 -37 4 -7 1 -8 -8 -5
-14 6 -21 -5 -17 -28 0 -5 -2 -7 -7 -5 -4 1 -7 -2 -7 -8 0 -5 3 -9 8 -7 4 1
12 -9 19 -23 11 -25 44 -43 56 -30 3 3 1 15 -6 26 -8 13 -9 25 -3 37 8 16 11
25 11 37 0 2 11 -6 25 -19 19 -18 25 -33 25 -65 0 -22 5 -41 10 -41 6 0 10 12
10 28 0 25 3 27 45 28 38 1 45 -1 45 -18 0 -17 -5 -19 -40 -13 -36 6 -40 5
-40 -15 0 -21 2 -22 83 -15 l83 7 39 -48 c21 -27 41 -51 43 -54 3 -3 7 1 9 8
3 6 20 12 39 12 21 0 33 -4 29 -10 -3 -5 -17 -10 -31 -10 -19 0 -25 -5 -22
-17 2 -13 15 -19 45 -21 46 -3 71 -32 28 -32 -16 0 -25 -6 -25 -15 0 -19 66
-21 73 -3 2 7 4 -1 4 -19 0 -30 -2 -31 -40 -30 -22 1 -41 -2 -43 -8 -2 -6 15
-10 41 -10 25 0 45 3 45 7 0 5 17 8 38 8 46 0 122 -39 122 -62 0 -10 -4 -18
-10 -18 -5 0 -7 -7 -3 -17 5 -13 8 -12 15 8 7 19 11 21 18 9 8 -12 10 -11 10
7 0 12 8 26 18 32 13 7 14 13 6 21 -9 9 -15 6 -26 -9 -16 -23 -28 -18 -28 11
0 11 -7 18 -20 18 -13 0 -18 5 -14 15 7 18 34 20 34 3 0 -7 4 -19 9 -26 7 -12
12 -12 30 0 18 11 23 11 31 -2 8 -12 10 -12 11 5 1 11 0 24 -1 30 -1 5 1 7 5
3 9 -8 44 33 71 82 10 19 21 37 24 40 3 3 14 25 25 49 10 24 21 39 23 33 4
-12 -68 -155 -114 -228 -33 -51 -115 -160 -150 -200 -11 -11 -28 -37 -39 -57
-11 -20 -23 -37 -27 -37 -4 0 -15 -15 -24 -33 -23 -45 -329 -346 -449 -442
-55 -44 -101 -83 -103 -87 -2 -5 -8 -8 -14 -8 -6 0 -26 -11 -44 -25 -18 -14
-40 -25 -48 -25 -9 0 -16 -4 -16 -9 0 -5 -17 -20 -37 -32 -21 -13 -39 -27 -41
-31 -2 -4 -8 -8 -14 -8 -5 0 -28 -13 -51 -28 -23 -16 -51 -32 -61 -36 -10 -3
-16 -9 -13 -13 4 -3 28 7 54 23 47 29 77 46 118 68 83 46 243 160 375 270 114
94 348 328 447 446 250 300 450 651 574 1010 98 282 128 407 174 726 23 154
30 506 16 688 -41 509 -196 1025 -424 1411 -23 39 -46 78 -52 87 -33 56 -120
190 -126 194 -4 2 -28 35 -53 72 -54 82 -164 212 -300 353 -93 97 -104 106
-138 105 l-37 0 27 -19 c21 -15 23 -18 7 -14 -26 5 -51 -18 -29 -27 24 -9 31
-7 14 4 -13 8 -13 10 2 10 9 0 28 -4 41 -9 20 -8 23 -15 19 -40 -2 -17 -8 -31
-13 -31 -5 0 -6 12 -3 26 6 23 4 25 -17 22 -17 -2 -24 -9 -24 -25 0 -13 -4
-23 -10 -23 -5 0 -10 9 -10 19 0 11 -3 23 -7 27 -5 4 -8 -2 -8 -14 0 -12 -5
-22 -11 -22 -5 0 -7 -4 -4 -10 4 -6 -6 -7 -26 -3 -23 4 -30 3 -25 -5 4 -7 19
-12 34 -12 23 -1 24 -2 10 -11 -11 -6 -40 -6 -80 0 -56 8 -58 9 -20 10 29 1
42 5 42 15 0 8 3 16 8 19 4 2 1 2 -6 0 -8 -1 -29 -3 -47 -3 -33 0 -34 -2 -46
-55 -14 -64 -29 -72 -29 -15 0 29 -4 40 -15 40 -11 0 -15 -12 -17 -42 l-1 -43
-4 38 c-4 34 -7 37 -36 38 l-32 2 35 7 35 7 -42 2 c-35 1 -43 -2 -44 -16 0
-11 -3 -13 -6 -5 -8 20 -33 14 -33 -8 0 -11 7 -20 15 -20 17 0 20 -16 5 -25
-6 -3 -13 0 -16 8 -3 9 -16 18 -30 21 -13 4 -24 13 -24 22 0 11 -6 13 -20 9
-11 -4 -20 -2 -20 4 0 6 -8 11 -17 11 -15 0 -16 2 -3 9 8 6 18 7 22 5 11 -7
10 8 -2 26 -8 12 -12 12 -18 2 -10 -14 -62 -7 -62 9 0 5 -7 9 -16 9 -8 0 -13
4 -10 8 2 4 -3 8 -13 9 -10 1 -43 17 -72 35 -30 18 -72 42 -94 53 -22 11 -46
26 -53 32 -7 7 -25 16 -40 20 -15 3 -45 17 -68 29 -22 12 -72 35 -110 50 -38
15 -73 31 -79 35 -5 5 -18 9 -28 9 -10 0 -31 6 -45 14 -55 30 -289 97 -474
137 -252 53 -593 77 -869 59z m-1909 -281 c0 -5 5 -7 12 -3 7 4 8 3 4 -4 -5
-9 -13 -9 -27 -2 -23 13 -24 20 -4 20 8 0 15 -5 15 -11z m-16 -33 c18 4 22 1
24 -23 1 -26 1 -27 -13 -9 -10 13 -23 17 -49 14 l-36 -4 23 24 c18 19 23 21
25 8 2 -11 10 -14 26 -10z m153 -12 c-3 -3 -12 -4 -19 -1 -8 3 -5 6 6 6 11 1
17 -2 13 -5z m-34 -45 c-17 -17 -36 -1 -20 16 7 8 16 10 22 4 5 -6 5 -13 -2
-20z m-223 -20 c0 -5 -4 -9 -10 -9 -5 0 -10 7 -10 16 0 8 5 12 10 9 6 -3 10
-10 10 -16z m47 5 c-3 -3 -12 -4 -19 -1 -8 3 -5 6 6 6 11 1 17 -2 13 -5z m218
-15 c11 -17 2 -18 -19 -3 -17 12 -17 14 -4 14 9 0 20 -5 23 -11z m-315 -43 c0
-2 -8 -10 -17 -17 -16 -13 -17 -12 -4 4 13 16 21 21 21 13z m380 -27 c0 -5 -4
-9 -10 -9 -5 0 -10 7 -10 16 0 8 5 12 10 9 6 -3 10 -10 10 -16z m-55 1 c3 -5
-3 -10 -15 -10 -12 0 -18 5 -15 10 3 6 10 10 15 10 5 0 12 -4 15 -10z m-385
-24 c0 -2 -7 -7 -16 -10 -8 -3 -12 -2 -9 4 6 10 25 14 25 6z m561 -33 c10 -12
11 -15 1 -9 -7 4 -23 1 -37 -8 -30 -20 -45 -20 -45 -2 0 7 15 18 33 24 17 5
33 10 33 11 1 1 8 -7 15 -16z m-601 -3 c0 -5 -5 -10 -11 -10 -5 0 -7 5 -4 10
3 6 8 10 11 10 2 0 4 -4 4 -10z m4827 -22 c-3 -8 -6 -5 -6 6 -1 11 2 17 5 13
3 -3 4 -12 1 -19z m48 12 c3 -5 1 -19 -5 -30 -13 -24 4 -65 23 -57 45 19 47
19 47 3 0 -11 -9 -16 -29 -16 -37 0 -78 49 -58 70 9 10 9 14 -1 17 -6 3 -10 9
-6 14 7 12 21 12 29 -1z m28 -56 c-7 -19 -23 -7 -23 18 0 17 3 18 14 8 8 -6
12 -18 9 -26z m-473 -4 c0 -5 -4 -10 -9 -10 -6 0 -13 5 -16 10 -3 6 1 10 9 10
9 0 16 -4 16 -10z m424 -26 c3 -8 2 -12 -4 -9 -6 3 -10 10 -10 16 0 14 7 11
14 -7z m-4674 -288 c0 -2 -8 -10 -17 -17 -16 -13 -17 -12 -4 4 13 16 21 21 21
13z m-670 -930 c0 -3 -4 -8 -10 -11 -5 -3 -10 -1 -10 4 0 6 5 11 10 11 6 0 10
-2 10 -4z m5994 -432 c3 -8 2 -12 -4 -9 -6 3 -10 10 -10 16 0 14 7 11 14 -7z
m-6188 -70 c-6 -19 -12 -28 -14 -20 -3 13 14 56 22 56 2 0 -2 -16 -8 -36z
m-61 -261 c-3 -16 -11 -32 -16 -37 -5 -6 -4 5 1 25 6 18 10 35 10 36 0 2 3 3
6 3 3 0 3 -12 -1 -27z m-19 -89 c-4 -9 -9 -15 -11 -12 -3 3 -3 13 1 22 4 9 9
15 11 12 3 -3 3 -13 -1 -22z m-15 -70 c-5 -21 -9 -30 -10 -19 -1 24 10 67 15
62 3 -2 0 -22 -5 -43z m6402 -79 c5 -28 4 -34 -3 -20 -8 19 -14 73 -6 64 2 -2
6 -22 9 -44z m-6416 -77 c-2 -18 -4 -6 -4 27 0 33 2 48 4 33 2 -15 2 -42 0
-60z m6430 -170 c-3 -7 -5 -2 -5 12 0 14 2 19 5 13 2 -7 2 -19 0 -25z m-697
-358 c0 -5 -2 -10 -4 -10 -3 0 -8 5 -11 10 -3 6 -1 10 4 10 6 0 11 -4 11 -10z
m-5703 -212 c-3 -8 -6 -5 -6 6 -1 11 2 17 5 13 3 -3 4 -12 1 -19z m6341 -145
c-16 -76 -32 -153 -35 -171 -3 -18 -10 -35 -16 -39 -13 -8 -5 39 32 175 10 40
22 95 26 122 4 28 10 50 15 50 4 0 -6 -62 -22 -137z m-6307 -26 c10 -48 17
-66 27 -62 9 3 10 0 4 -11 -6 -11 -2 -38 10 -78 11 -33 22 -74 24 -91 3 -16 7
-37 10 -45 3 -10 2 -12 -4 -5 -10 9 -47 122 -56 169 -3 11 -11 46 -20 76 -8
30 -17 89 -20 130 -3 55 -3 63 3 30 5 -25 14 -75 22 -113z m829 -77 c0 -5 -5
-10 -11 -10 -5 0 -7 5 -4 10 3 6 8 10 11 10 2 0 4 -4 4 -10z m44 -115 c-4 -8
-7 -15 -9 -15 -2 0 -5 7 -9 15 -3 9 0 15 9 15 9 0 12 -6 9 -15z m50 -71 c25
-10 19 -22 -9 -16 -14 2 -25 8 -25 13 0 10 12 11 34 3z m5303 -16 c-3 -8 -6
-5 -6 6 -1 11 2 17 5 13 3 -3 4 -12 1 -19z m-843 -34 c3 -8 2 -12 -4 -9 -6 3
-10 10 -10 16 0 14 7 11 14 -7z m-4440 0 c21 -8 21 -24 0 -24 -8 0 -13 4 -10
9 4 5 0 12 -6 14 -7 3 -10 6 -6 6 3 1 13 -2 22 -5z m36 -49 c0 -14 -4 -25 -10
-25 -11 0 -14 33 -3 43 11 11 13 8 13 -18z m5203 -70 c-17 -68 -109 -265 -123
-265 -15 0 -7 32 22 80 14 25 29 56 33 70 4 13 14 30 21 38 8 7 11 18 8 23 -5
8 46 122 52 116 1 -1 -4 -29 -13 -62z m-6064 15 c0 -10 -3 -8 -9 5 -12 27 -12
43 0 25 5 -8 9 -22 9 -30z m5211 16 c0 -2 -7 -6 -15 -10 -8 -3 -15 -1 -15 4 0
6 7 10 15 10 8 0 15 -2 15 -4z m-4295 -33 c18 -27 18 -28 -1 -12 -10 9 -25 14
-33 11 -12 -4 -12 -3 0 11 8 9 15 16 15 17 1 0 10 -12 19 -27z m-885 -25 c0
-6 -6 -5 -15 2 -8 7 -15 14 -15 16 0 2 7 1 15 -2 8 -4 15 -11 15 -16z m5148
-8 c7 -11 8 -20 2 -20 -5 0 -14 9 -20 20 -6 11 -7 20 -3 20 5 0 14 -9 21 -20z
m-4248 -15 c5 3 11 1 15 -5 9 -14 -18 -13 -33 2 -7 7 -12 17 -12 23 0 5 5 2
11 -8 6 -9 14 -15 19 -12z m-425 5 c3 -5 1 -10 -4 -10 -6 0 -11 5 -11 10 0 6
2 10 4 10 3 0 8 -4 11 -10z m4622 -37 c2 -6 -10 -21 -27 -33 -25 -18 -30 -19
-30 -5 0 9 4 14 9 11 13 -8 34 21 25 35 -4 7 -2 10 6 7 8 -2 15 -9 17 -15z
m-4210 -45 c-3 -8 -6 -5 -6 6 -1 11 2 17 5 13 3 -3 4 -12 1 -19z m63 18 c0 -3
-4 -8 -10 -11 -5 -3 -10 -1 -10 4 0 6 5 11 10 11 6 0 10 -2 10 -4z m-320 -21
c0 -9 -6 -12 -16 -8 -13 5 -13 7 -2 14 17 11 18 11 18 -6z m4455 -5 c-3 -5
-12 -10 -18 -10 -7 0 -6 4 3 10 19 12 23 12 15 0z m-4115 -20 c0 -5 -7 -7 -15
-4 -8 4 -15 8 -15 10 0 2 7 4 15 4 8 0 15 -4 15 -10z m60 -39 c0 -5 -15 -8
-32 -7 -18 2 -36 -2 -40 -8 -11 -16 -9 6 1 23 8 12 12 13 25 1 9 -7 20 -9 24
-5 4 4 1 10 -5 12 -7 3 -13 11 -13 19 0 10 5 9 20 -6 11 -11 20 -24 20 -29z
m3985 39 c-3 -5 -12 -10 -18 -10 -7 0 -6 4 3 10 19 12 23 12 15 0z m88 -20 c3
-11 1 -18 -4 -14 -5 3 -9 12 -9 20 0 20 7 17 13 -6z m157 0 c0 -5 -5 -10 -11
-10 -5 0 -7 5 -4 10 3 6 8 10 11 10 2 0 4 -4 4 -10z m-260 -19 c0 -14 -6 -19
-20 -18 -24 2 -24 2 -4 21 20 21 24 20 24 -3z m164 -2 c-3 -5 -10 -7 -15 -3
-5 3 -7 10 -3 15 3 5 10 7 15 3 5 -3 7 -10 3 -15z m176 -9 c0 -5 -15 -9 -32
-9 l-33 1 30 8 c17 4 31 8 33 9 1 0 2 -3 2 -9z m-143 -6 c-3 -3 -12 -4 -19 -1
-8 3 -5 6 6 6 11 1 17 -2 13 -5z m-5054 -61 c-7 -18 -30 14 -30 41 0 16 2 15
18 -5 9 -12 15 -29 12 -36z m693 19 c-4 -3 -12 0 -19 7 -9 9 -9 14 3 21 11 7
16 5 18 -6 2 -9 1 -18 -2 -22z m199 28 c3 -5 1 -10 -4 -10 -6 0 -11 5 -11 10
0 6 2 10 4 10 3 0 8 -4 11 -10z m57 -47 c-5 -16 -14 -16 -36 0 -13 9 -16 20
-12 34 l7 21 22 -21 c13 -12 21 -28 19 -34z m4428 33 c0 -3 -4 -8 -10 -11 -5
-3 -10 -1 -10 4 0 6 5 11 10 11 6 0 10 -2 10 -4z m310 -6 c0 -5 -2 -10 -4 -10
-3 0 -8 5 -11 10 -3 6 -1 10 4 10 6 0 11 -4 11 -10z m-5186 -31 c-8 -14 -24
-10 -24 6 0 9 6 12 15 9 8 -4 12 -10 9 -15z m143 -1 c-3 -8 -6 -5 -6 6 -1 11
2 17 5 13 3 -3 4 -12 1 -19z m4793 12 c0 -5 -4 -10 -10 -10 -5 0 -10 5 -10 10
0 6 5 10 10 10 6 0 10 -4 10 -10z m-4540 -20 c0 -5 -2 -10 -4 -10 -3 0 -8 5
-11 10 -3 6 -1 10 4 10 6 0 11 -4 11 -10z m-877 -20 c-3 -11 -7 -20 -9 -20 -2
0 -4 9 -4 20 0 11 4 20 9 20 5 0 7 -9 4 -20z m62 0 c10 -11 13 -20 8 -20 -6 0
-13 7 -17 15 -3 9 -12 12 -22 8 -12 -4 -15 -3 -10 5 10 17 20 15 41 -8z m395
-6 c0 -8 -4 -12 -10 -9 -5 3 -10 10 -10 16 0 5 5 9 10 9 6 0 10 -7 10 -16z
m4977 10 c-3 -3 -12 -4 -19 -1 -8 3 -5 6 6 6 11 1 17 -2 13 -5z m-4930 -26
c-3 -8 -6 -5 -6 6 -1 11 2 17 5 13 3 -3 4 -12 1 -19z m373 1 c0 -6 -4 -7 -10
-4 -5 3 -10 11 -10 16 0 6 5 7 10 4 6 -3 10 -11 10 -16z m-100 -5 c8 -9 -25
-24 -52 -24 -16 0 -28 -4 -28 -10 0 -5 -12 -10 -27 -10 l-28 0 30 30 c25 25
35 29 65 24 19 -3 37 -8 40 -10z m4680 0 c0 -21 -24 -44 -46 -44 -10 0 -14 3
-10 8 4 4 13 7 19 7 7 0 13 10 15 23 4 25 22 31 22 6z m37 -16 c-3 -7 -5 -2
-5 12 0 14 2 19 5 13 2 -7 2 -19 0 -25z m203 28 c0 -11 -19 -15 -25 -6 -3 5 1
10 9 10 9 0 16 -2 16 -4z m-5560 -16 c0 -5 -5 -10 -11 -10 -5 0 -7 5 -4 10 3
6 8 10 11 10 2 0 4 -4 4 -10z m5250 0 c0 -5 -4 -10 -10 -10 -5 0 -10 5 -10 10
0 6 5 10 10 10 6 0 10 -4 10 -10z m-5300 -20 c0 -5 -9 -10 -21 -10 -11 0 -17
-4 -14 -10 4 -6 -1 -7 -11 -3 -13 5 -15 3 -9 -7 5 -9 4 -11 -3 -6 -7 4 -12 14
-12 22 0 8 4 13 9 9 5 -3 12 -1 16 5 8 13 45 13 45 0z m47 -16 c-3 -3 -12 -4
-19 -1 -8 3 -5 6 6 6 11 1 17 -2 13 -5z m5233 -15 c0 -4 -5 -19 -11 -33 -10
-21 -14 -23 -30 -13 -23 14 -25 27 -4 27 8 0 15 9 15 20 0 13 5 18 15 14 8 -4
15 -10 15 -15z m-4950 -4 c0 -8 -4 -15 -10 -15 -5 0 -10 7 -10 15 0 8 5 15 10
15 6 0 10 -7 10 -15z m5194 -7 c3 -13 6 -32 5 -43 0 -14 -4 -10 -14 14 -17 38
-19 51 -6 51 5 0 11 -10 15 -22z m36 12 c0 -5 -2 -10 -4 -10 -3 0 -8 5 -11 10
-3 6 -1 10 4 10 6 0 11 -4 11 -10z m-4917 -15 c1 -5 -6 -11 -15 -13 -11 -2
-18 3 -18 13 0 17 30 18 33 0z m-283 -47 c0 -5 -7 -8 -15 -8 -15 0 -20 21 -8
33 7 7 23 -11 23 -25z m-60 8 c0 -8 6 -17 13 -19 6 -3 -1 -6 -18 -6 -23 -1
-27 2 -15 9 13 9 13 11 0 20 -13 8 -12 10 3 10 9 0 17 -6 17 -14z m5200 -5
c13 -25 13 -51 -1 -51 -5 0 -7 5 -4 10 10 16 -4 48 -23 53 -16 4 -16 5 0 6 10
0 22 -8 28 -18z m-5512 -26 c-3 -3 -9 2 -12 12 -6 14 -5 15 5 6 7 -7 10 -15 7
-18z m175 18 c-7 -2 -19 -2 -25 0 -7 3 -2 5 12 5 14 0 19 -2 13 -5z m5274 1
c-3 -3 -12 -4 -19 -1 -8 3 -5 6 6 6 11 1 17 -2 13 -5z m-5067 -29 c0 -8 -9
-15 -20 -15 -20 0 -26 11 -13 23 12 13 33 7 33 -8z m-340 -15 c0 -5 -7 -10
-15 -10 -8 0 -15 5 -15 10 0 6 7 10 15 10 8 0 15 -4 15 -10z m176 -167 c-10
-10 -19 5 -10 18 6 11 8 11 12 0 2 -7 1 -15 -2 -18z"/>
<path d="M5790 7720 c0 -5 7 -10 16 -10 8 0 12 5 9 10 -3 6 -10 10 -16 10 -5
0 -9 -4 -9 -10z"/>
<path d="M5859 12203 c-13 -15 -12 -15 9 -4 23 12 28 21 13 21 -5 0 -15 -7
-22 -17z"/>
<path d="M9700 12123 c8 -4 21 -13 29 -20 7 -8 25 -21 38 -30 13 -9 22 -22 19
-29 -3 -8 0 -11 8 -8 7 3 24 -6 39 -20 16 -14 27 -20 27 -12 0 14 -45 56 -59
56 -5 0 -11 3 -13 8 -7 17 -71 62 -86 61 -14 0 -14 -2 -2 -6z"/>
<path d="M5700 12035 c7 -8 17 -15 22 -15 6 0 5 7 -2 15 -7 8 -17 15 -22 15
-6 0 -5 -7 2 -15z"/>
<path d="M5742 12036 c7 -8 15 -12 17 -11 5 6 -10 25 -20 25 -5 0 -4 -6 3 -14z"/>
<path d="M9876 11985 c4 -8 13 -15 21 -15 13 0 13 3 3 15 -7 8 -16 15 -21 15
-5 0 -6 -7 -3 -15z"/>
<path d="M7865 11969 c-4 -6 4 -51 16 -101 17 -66 29 -92 42 -96 9 -2 17 -13
17 -23 0 -10 5 -21 10 -24 18 -11 11 -106 -14 -199 -45 -166 -55 -312 -35
-495 9 -83 8 -109 -5 -160 -31 -122 -113 -241 -166 -241 -23 0 -115 101 -161
178 l-34 56 2 191 c2 104 -2 216 -8 248 -11 62 -13 248 -4 336 5 49 13 78 66
249 10 34 19 67 19 72 0 14 -46 12 -57 -2 -11 -13 -12 -18 -37 -126 -8 -35
-21 -73 -29 -86 -21 -31 -37 -124 -37 -210 l0 -71 -25 53 c-30 65 -31 83 -6
153 36 105 44 124 63 152 l19 27 -23 9 c-18 8 -19 10 -5 10 16 1 17 6 12 34
-9 40 -22 57 -45 57 -11 0 -20 -10 -24 -27 -20 -82 -28 -103 -38 -103 -6 0 -8
9 -5 21 6 22 -11 69 -24 69 -4 0 -12 -8 -18 -17 -9 -16 -12 -16 -39 10 -28 27
-29 27 -46 8 -18 -20 -17 -21 15 -48 18 -15 39 -27 46 -25 7 2 12 -8 12 -25 0
-15 3 -42 6 -59 4 -20 2 -42 -7 -58 -13 -25 -15 -25 -36 -10 -21 14 -43 48
-113 169 l-25 45 -14 -25 c-13 -25 -44 -33 -55 -15 -11 17 -25 11 -25 -10 0
-12 10 -35 23 -51 26 -36 28 -83 8 -224 -11 -83 -9 -131 7 -173 4 -12 -6 -8
-34 13 -21 16 -40 32 -42 36 -2 4 -12 18 -23 31 -47 53 -80 154 -81 243 0 72
-12 89 -38 55 -38 -50 -44 -149 -12 -205 7 -11 20 -45 31 -76 l19 -57 -32 -15
-31 -16 32 6 c26 4 41 0 67 -21 43 -32 112 -135 128 -189 17 -62 36 -80 77
-73 19 3 37 10 41 15 3 6 17 7 30 4 25 -7 25 -7 -5 -13 -23 -4 -29 -11 -28
-27 2 -16 -2 -21 -12 -17 -21 8 -19 -10 3 -29 22 -20 36 -22 29 -4 -5 15 9 57
20 57 12 0 14 -58 3 -65 -16 -10 -11 -25 8 -25 11 0 30 -9 43 -21 13 -11 31
-18 41 -16 24 7 43 -37 25 -60 -5 -7 -7 -14 -3 -14 10 -2 25 -6 34 -9 4 -1 10
-2 15 -1 4 0 7 -8 7 -20 0 -16 -4 -20 -17 -14 -17 6 -17 5 -1 -12 9 -10 28
-30 41 -45 14 -15 22 -29 19 -32 -3 -3 4 -6 15 -6 11 0 28 -11 37 -25 17 -26
17 -26 -11 -19 l-28 6 33 -30 c17 -17 32 -36 32 -42 0 -6 5 -8 11 -5 17 11 48
-24 41 -47 -3 -13 -1 -19 5 -15 6 4 17 0 24 -9 9 -11 22 -14 46 -9 26 5 33 3
33 -10 0 -8 7 -15 16 -15 8 0 12 -4 9 -10 -3 -5 3 -10 14 -10 10 0 26 -3 35
-6 11 -4 16 -1 16 10 0 9 3 15 8 15 19 -3 26 2 12 11 -12 7 -12 12 -2 22 15
15 16 32 0 22 -7 -4 -8 -3 -4 4 4 6 13 9 21 6 8 -4 31 11 55 36 24 24 47 40
55 36 10 -3 12 0 8 11 -4 11 -2 14 5 9 7 -4 12 -2 12 3 0 6 -4 11 -10 11 -19
0 -10 32 10 37 16 4 18 9 9 24 -6 13 -6 19 1 19 5 0 10 11 10 24 0 14 5 28 10
31 6 3 10 2 10 -4 0 -14 72 16 92 40 9 10 22 19 30 19 7 0 22 15 34 33 80 126
95 147 99 147 10 0 -9 -56 -28 -82 -11 -14 -17 -32 -15 -39 6 -18 59 66 68
106 4 17 12 29 18 27 9 -1 9 3 0 18 -7 10 -14 17 -17 15 -2 -3 -10 0 -18 6 -9
9 -13 8 -13 0 0 -6 -5 -11 -11 -11 -15 0 -5 67 16 106 8 16 15 35 15 42 0 7
26 39 59 71 l59 58 -6 115 c-5 114 9 240 29 265 6 6 9 22 7 34 -4 29 -28 37
-28 10 0 -12 -6 -20 -12 -18 -7 1 -12 -6 -12 -15 2 -20 -11 -24 -22 -7 -3 6 3
24 15 40 23 31 14 40 -11 12 -38 -42 -44 -84 -46 -284 l-1 -197 -35 -63 c-19
-35 -41 -89 -50 -119 -23 -82 -59 -170 -70 -170 -4 0 -26 17 -47 39 l-39 39 0
84 c0 139 18 189 135 372 59 92 72 152 56 256 -10 65 -34 140 -45 140 -15 0
-66 -24 -66 -31 0 -4 7 -30 16 -56 31 -88 13 -278 -26 -291 -8 -3 -10 2 -7 14
18 60 17 80 -8 176 -14 57 -33 118 -42 137 -14 32 -17 33 -29 16 -7 -10 -16
-38 -19 -64 -10 -76 -26 -141 -34 -136 -11 6 -12 65 -2 65 5 0 11 19 14 42 5
38 2 45 -41 94 -47 54 -65 64 -77 43z m-397 -47 c2 -7 -2 -10 -12 -6 -9 3 -16
11 -16 16 0 13 23 5 28 -10z m444 -46 c-3 -5 -9 -1 -13 10 -12 31 -10 39 5 19
8 -11 12 -24 8 -29z m-462 19 c0 -8 -7 -15 -15 -15 -26 0 -18 20 13 29 1 1 2
-6 2 -14z m110 -31 c0 -14 -4 -23 -9 -20 -5 3 -7 15 -4 26 7 28 13 25 13 -6z
m620 2 c0 -8 6 -16 13 -19 6 -2 9 -8 5 -12 -8 -9 -38 18 -38 34 0 6 5 11 10
11 6 0 10 -6 10 -14z m-720 -35 c0 -4 -7 -8 -15 -8 -8 0 -15 6 -15 13 0 8 6
11 15 8 8 -4 15 -9 15 -13z m-319 -24 c21 -7 34 -73 18 -93 -14 -17 -29 -9
-29 14 0 10 -9 34 -20 55 -24 45 -25 50 -2 38 9 -5 24 -12 33 -14z m279 -13
c0 -8 -4 -13 -9 -10 -5 3 -11 -1 -15 -9 -3 -8 -13 -15 -23 -15 -11 0 -14 3 -7
8 6 4 13 15 17 25 8 21 37 23 37 1z m-214 -59 c9 -19 20 -35 25 -35 5 0 9 -5
9 -11 0 -7 8 -18 17 -25 22 -15 14 -25 -14 -18 -12 3 -20 11 -17 18 3 7 -7 25
-21 42 -14 16 -25 37 -25 47 0 26 7 21 26 -18z m837 -22 c-2 -70 -17 -141 -42
-203 -13 -30 -23 -57 -23 -60 0 -3 -2 -9 -3 -15 -11 -39 -11 -56 0 -65 9 -8
14 -3 18 20 4 16 11 30 17 30 6 0 8 -5 4 -11 -3 -6 -8 -34 -9 -62 -3 -64 -14
-107 -27 -107 -6 0 -8 6 -5 14 3 8 2 16 -4 18 -5 2 -6 15 0 35 7 24 6 35 -5
44 -11 9 -14 6 -15 -17 -1 -16 -1 -32 0 -36 0 -5 -5 -8 -12 -8 -15 0 -11 66 4
76 5 3 9 10 9 15 0 6 -4 7 -10 4 -5 -3 -10 1 -10 9 0 9 4 16 10 16 5 0 12 17
16 38 4 20 10 42 14 47 20 27 39 111 44 191 2 29 7 57 10 63 14 23 21 10 19
-36z m-654 -11 c-10 -14 -19 -31 -19 -38 0 -22 -16 -16 -17 6 -1 11 3 20 9 20
5 0 8 7 5 14 -4 10 -1 13 9 9 10 -3 14 2 14 18 0 18 2 21 9 10 7 -10 3 -23
-10 -39z m811 11 c0 -14 -19 -38 -25 -32 -8 8 5 39 16 39 5 0 9 -3 9 -7z m120
-19 c0 -8 -4 -14 -10 -14 -5 0 -10 9 -10 21 0 11 5 17 10 14 6 -3 10 -13 10
-21z m-10 -101 c-5 -16 -9 -21 -10 -13 -1 8 -3 28 -5 44 -2 16 -1 34 2 40 11
17 22 -42 13 -71z m-1123 30 c4 -10 27 -43 51 -73 65 -80 162 -281 162 -336 0
-37 -45 -172 -63 -191 -4 -3 -18 -1 -31 6 -19 11 -25 24 -31 68 -7 56 -24 102
-61 163 -32 52 -67 244 -58 320 7 60 19 76 31 43z m122 -2 c7 -5 11 -13 7 -19
-3 -6 -1 -14 5 -18 8 -5 9 -3 4 5 -5 9 -2 12 10 9 23 -4 31 -25 11 -30 -13 -2
-12 -7 4 -28 16 -20 22 -22 29 -11 6 9 11 10 15 2 4 -6 2 -11 -5 -11 -8 0 -9
-10 -5 -31 5 -25 3 -30 -12 -27 -9 2 -21 13 -27 26 -5 12 -13 22 -17 22 -4 0
-5 6 -2 14 3 7 -6 26 -19 42 -13 16 -24 37 -24 47 0 19 6 21 26 8z m735 -107
c3 -8 2 -12 -4 -9 -6 3 -10 10 -10 16 0 14 7 11 14 -7z m276 -3 c0 -11 -4 -23
-10 -26 -6 -4 -10 5 -10 19 0 14 5 26 10 26 6 0 10 -9 10 -19z m-275 -52 c-9
-17 -19 -29 -22 -26 -5 5 25 57 33 57 3 0 -3 -14 -11 -31z m-921 -15 c3 -8 2
-12 -4 -9 -6 3 -10 10 -10 16 0 14 7 11 14 -7z m291 -5 c-5 -15 -4 -19 4 -15
6 4 11 14 11 22 0 22 17 16 23 -8 3 -13 9 -33 12 -46 6 -18 4 -21 -9 -16 -9 3
-16 1 -16 -5 0 -6 -5 -11 -10 -11 -6 0 -3 11 6 25 19 28 4 34 -22 8 -16 -16
-16 -16 -10 4 4 12 2 24 -3 27 -12 8 -3 36 11 36 5 0 6 -10 3 -21z m-283 -99
c9 -19 21 -40 26 -45 5 -6 7 -16 4 -23 -2 -6 1 -12 7 -12 5 0 9 -19 9 -42 0
-32 -3 -38 -8 -23 -5 11 -17 27 -29 35 -12 8 -21 22 -21 32 0 9 -4 20 -10 23
-5 3 -10 17 -10 30 0 13 -4 27 -10 30 -5 3 -10 13 -10 21 0 28 34 10 52 -26z
m-62 -6 c0 -8 -4 -12 -10 -9 -5 3 -10 10 -10 16 0 5 5 9 10 9 6 0 10 -7 10
-16z m417 4 c0 -7 4 -38 8 -69 l7 -56 -31 -5 c-40 -6 -47 5 -30 44 10 24 10
33 1 36 -17 5 -15 22 3 22 8 0 15 9 15 20 0 21 26 29 27 8z m-322 -8 c3 -5 1
-10 -4 -10 -6 0 -11 5 -11 10 0 6 2 10 4 10 3 0 8 -4 11 -10z m-65 -51 c0 -6
-4 -7 -10 -4 -5 3 -10 11 -10 16 0 6 5 7 10 4 6 -3 10 -11 10 -16z m845 -79
c3 -5 1 -10 -4 -10 -6 0 -11 5 -11 10 0 6 2 10 4 10 3 0 8 -4 11 -10z m-464
-24 c9 5 10 2 4 -12 -4 -10 -7 -27 -7 -37 1 -12 -5 -17 -16 -15 -9 1 -23 -1
-29 -5 -7 -5 -13 -4 -13 0 0 5 9 14 20 21 21 13 28 42 10 42 -5 0 -10 5 -10
11 0 8 4 8 15 -1 8 -6 20 -8 26 -4z m-36 -26 c3 -6 -1 -7 -9 -4 -18 7 -21 14
-7 14 6 0 13 -4 16 -10z m543 -61 c-9 -6 -8 -10 5 -15 11 -4 17 -15 16 -28 -1
-11 2 -29 6 -39 4 -11 2 -36 -5 -59 -12 -33 -12 -41 0 -48 12 -7 12 -10 -2
-15 -38 -15 -72 40 -46 73 7 8 7 12 0 12 -5 0 -9 23 -8 51 0 28 -2 53 -6 55
-4 3 0 13 9 24 13 15 20 17 30 8 11 -9 11 -13 1 -19z m-570 -16 c-2 -9 -8 -18
-15 -20 -7 -3 -9 3 -6 16 6 25 26 28 21 4z m48 -69 c0 -75 -2 -84 -13 -67 -13
16 -17 126 -6 146 12 22 18 -2 19 -79z m612 36 c7 -11 18 -20 26 -20 24 0 26
-29 4 -44 -25 -18 -47 -11 -59 21 -21 55 1 87 29 43z m-657 -2 c0 -2 2 -22 5
-45 4 -35 2 -43 -12 -43 -10 0 -14 5 -10 15 3 8 1 15 -4 15 -11 0 -14 43 -3
53 6 7 22 10 24 5z m484 -318 c-3 -5 -12 -10 -18 -10 -7 0 -6 4 3 10 19 12 23
12 15 0z m-165 -114 c0 -2 -7 -7 -16 -10 -8 -3 -12 -2 -9 4 6 10 25 14 25 6z"/>
<path d="M5835 11950 c3 -5 8 -10 11 -10 2 0 4 5 4 10 0 6 -5 10 -11 10 -5 0
-7 -4 -4 -10z"/>
<path d="M5865 11930 c-3 -5 1 -10 10 -10 9 0 13 5 10 10 -3 6 -8 10 -10 10
-2 0 -7 -4 -10 -10z"/>
<path d="M9950 11890 c0 -5 5 -10 11 -10 5 0 7 5 4 10 -3 6 -8 10 -11 10 -2 0
-4 -4 -4 -10z"/>
<path d="M10016 11870 c16 -16 33 -30 38 -30 6 0 -3 14 -19 30 -16 17 -33 30
-39 30 -5 0 4 -13 20 -30z"/>
<path d="M5937 11849 c-3 -12 -10 -18 -16 -14 -6 3 -9 0 -5 -8 5 -13 9 -13 35
0 32 16 37 28 13 37 -22 8 -21 9 -27 -15z"/>
<path d="M5858 11803 c-10 -2 -18 -11 -18 -20 0 -10 6 -13 16 -9 9 3 22 6 30
6 8 0 11 6 8 15 -6 16 -7 16 -36 8z"/>
<path d="M5912 11779 c-7 -10 -8 -19 -3 -19 13 0 33 28 23 33 -4 3 -13 -3 -20
-14z"/>
<path d="M7656 11791 c-3 -5 1 -11 9 -15 8 -3 15 -1 15 4 0 13 -18 22 -24 11z"/>
<path d="M7855 11791 c-3 -5 -1 -13 5 -16 6 -4 8 -16 4 -28 -4 -15 -3 -19 4
-12 17 17 19 65 3 65 -6 0 -12 -4 -16 -9z"/>
<path d="M8578 11788 c0 -7 -2 -17 -3 -23 -2 -5 -3 -17 -4 -25 -1 -13 -2 -13
-11 0 -7 11 -11 9 -19 -12 -9 -24 4 -86 22 -104 4 -4 7 -14 7 -23 0 -12 -3
-12 -12 -3 -14 14 -32 16 -23 2 12 -19 -7 -77 -33 -104 -45 -45 -96 -86 -107
-86 -6 0 -28 -16 -49 -35 -21 -19 -43 -35 -48 -35 -5 0 -6 -5 -2 -11 3 -6 0
-15 -7 -20 -10 -6 -10 -9 -2 -9 7 0 17 9 23 20 11 21 89 75 96 67 3 -2 -8 -12
-23 -22 -33 -22 -62 -55 -63 -72 0 -7 -7 -13 -15 -13 -9 0 -15 -9 -15 -24 0
-13 -7 -36 -15 -52 -13 -26 -13 -30 8 -49 12 -11 26 -19 30 -17 5 1 19 -4 32
-12 12 -8 34 -16 50 -18 27 -3 26 -4 -23 -29 -37 -19 -54 -23 -62 -15 -13 13
-33 -11 -25 -31 6 -18 -5 -43 -19 -43 -6 0 -27 -19 -46 -43 -66 -79 -154 -166
-164 -160 -5 4 -6 1 -2 -6 11 -17 -22 -51 -50 -51 -13 0 -26 -5 -30 -11 -4 -8
0 -9 15 -4 16 5 20 3 15 -9 -3 -9 -10 -16 -15 -16 -5 0 -15 -11 -21 -25 -6
-14 -17 -25 -25 -25 -7 0 -13 -8 -13 -18 0 -9 -12 -30 -26 -45 -15 -16 -27
-41 -29 -55 -5 -64 -26 -101 -38 -69 -3 6 -6 -2 -6 -20 -1 -17 -5 -34 -10 -37
-12 -8 -21 -83 -22 -186 0 -47 0 -87 1 -90 1 -3 3 -12 5 -20 2 -8 6 -22 10
-31 3 -10 2 -20 -4 -24 -6 -3 -11 -12 -11 -18 0 -7 4 -6 11 3 9 12 10 11 6 -7
-3 -13 -2 -23 2 -23 4 0 12 -10 17 -22 6 -13 9 -17 7 -9 -2 9 3 12 16 8 11 -2
31 5 47 19 16 13 35 23 42 24 6 0 12 5 12 10 0 6 3 9 8 8 14 -5 47 37 44 57
-2 18 -2 18 8 3 6 -11 17 -15 28 -11 25 9 52 34 47 44 -7 11 44 61 56 54 5 -4
9 1 9 9 0 9 11 18 24 22 13 3 30 17 37 31 8 14 33 43 57 64 27 23 41 43 36 50
-4 8 -3 9 4 5 7 -4 19 5 30 23 10 16 67 73 127 127 205 182 305 278 305 292 0
6 9 16 19 22 26 13 31 13 31 -4 0 -12 7 -12 53 0 60 16 130 19 108 5 -8 -5
-20 -7 -26 -5 -20 8 -160 -65 -201 -105 -52 -50 -128 -141 -117 -141 4 0 31
20 58 45 28 24 56 45 63 45 7 0 11 4 8 8 -5 9 30 38 77 61 15 8 27 18 27 23 0
4 12 8 27 8 15 0 56 20 95 46 52 35 76 59 103 106 20 33 33 63 30 66 -3 3 -5
2 -5 -2 0 -4 -7 -1 -15 7 -8 9 -20 18 -27 20 -10 4 -10 7 0 15 10 6 23 1 44
-18 l30 -28 -37 -66 c-36 -65 -75 -106 -101 -106 -7 0 -14 -4 -16 -9 -4 -13
-169 -121 -183 -121 -7 0 -18 -7 -25 -14 -6 -8 -30 -24 -53 -35 -50 -24 -129
-101 -174 -169 -9 -12 -32 -30 -52 -39 -20 -9 -38 -20 -41 -23 -11 -14 -51
-31 -60 -25 -6 3 -10 -2 -10 -12 0 -11 -5 -24 -12 -31 -7 -7 -13 -25 -13 -40
0 -15 -6 -26 -12 -25 -6 1 -14 -4 -17 -13 -3 -8 -2 -12 3 -9 5 3 12 1 15 -4 4
-5 2 -12 -4 -16 -5 -3 2 -19 17 -35 25 -28 28 -29 117 -29 168 2 176 1 176
-18 0 -11 3 -14 8 -7 4 6 30 15 57 19 65 11 61 10 127 35 32 12 62 19 67 15 6
-3 17 7 25 22 18 37 180 190 226 215 19 10 42 24 51 30 20 14 69 2 69 -17 0
-9 7 -13 18 -9 9 2 -2 -4 -24 -15 -23 -10 -45 -24 -48 -29 -4 -6 -20 -18 -38
-26 -23 -12 -34 -13 -44 -5 -29 24 -12 -9 20 -40 19 -19 32 -40 29 -47 -3 -8
1 -14 11 -14 29 0 17 -16 -21 -28 -44 -14 -57 -6 -25 15 12 9 22 20 22 26 0 5
-8 3 -18 -6 -22 -20 -46 -22 -39 -4 4 10 -2 13 -19 9 -13 -2 -24 0 -24 5 0 5
-7 10 -15 10 -8 0 -15 -4 -15 -9 0 -4 7 -8 15 -8 8 0 15 -4 15 -10 0 -5 7 -10
16 -10 8 0 12 -5 9 -11 -4 -6 -13 -8 -20 -5 -14 5 -59 -37 -49 -47 3 -3 -8
-15 -26 -26 -30 -18 -35 -18 -57 -4 -16 11 -36 14 -64 10 -47 -6 -59 -15 -39
-27 17 -10 16 -12 -29 -33 -28 -14 -59 -16 -195 -12 -205 7 -297 12 -304 19
-3 3 -11 1 -18 -5 -7 -6 -29 -12 -48 -14 -19 -1 -43 -10 -51 -19 -22 -22 -28
-20 -13 4 7 11 18 20 24 20 6 0 17 7 25 16 27 32 -70 -6 -109 -43 -7 -7 -20
-13 -28 -13 -8 0 -14 -4 -14 -10 0 -5 -6 -10 -14 -10 -15 0 -29 -27 -21 -40 3
-4 -13 -23 -35 -41 -22 -18 -40 -37 -40 -42 0 -4 -17 -34 -39 -65 -64 -96 -75
-116 -72 -139 1 -12 -7 -31 -18 -42 -12 -12 -15 -21 -9 -23 24 -8 -4 -28 -29
-22 -19 5 -24 3 -21 -7 3 -8 13 -13 22 -13 9 1 16 -2 16 -7 0 -8 -15 -13 -32
-10 -5 0 -9 -5 -9 -11 -1 -7 -2 -17 -4 -23 -1 -5 -3 -18 -3 -27 -1 -10 -6 -18
-11 -18 -5 0 -7 10 -4 23 4 21 4 21 -11 3 -17 -21 -13 -36 10 -36 8 0 14 -4
14 -10 0 -5 -9 -10 -21 -10 -11 0 -17 -4 -14 -10 3 -5 17 -10 31 -10 13 0 24
-5 24 -11 0 -7 -14 -8 -40 -4 -36 6 -40 5 -40 -14 0 -11 -4 -23 -10 -26 -15
-9 -12 -25 5 -25 8 0 15 9 15 19 0 22 29 36 44 21 7 -7 4 -10 -8 -10 -12 0
-16 -5 -12 -15 3 -9 0 -15 -8 -15 -7 0 -19 -7 -26 -15 -7 -8 -21 -15 -31 -15
-11 0 -19 -7 -19 -16 0 -15 2 -15 25 0 21 14 25 14 25 2 0 -8 -4 -17 -10 -21
-5 -3 -7 -12 -3 -21 3 -8 -3 -21 -13 -29 -23 -17 -12 -31 13 -16 10 6 14 11
10 11 -4 0 -3 10 4 21 9 17 13 19 19 8 7 -11 12 -10 28 4 25 23 35 22 27 -3
-5 -16 -2 -20 17 -20 18 0 20 -2 8 -10 -9 -5 -19 -5 -27 2 -8 6 -16 8 -20 4
-12 -11 12 -26 45 -29 18 -1 32 -8 32 -15 0 -9 6 -8 24 3 23 15 24 15 22 -8 0
-16 -6 -23 -14 -19 -12 4 -12 1 -1 -17 14 -21 36 -23 31 -2 -1 6 4 11 12 11 8
0 23 11 34 25 23 29 32 32 32 9 0 -8 5 -12 10 -9 6 4 8 15 5 25 -5 14 -1 18
20 16 17 -1 25 -7 25 -20 0 -12 -5 -16 -15 -12 -9 3 -18 -1 -21 -9 -4 -8 -15
-15 -26 -15 -12 0 -17 -4 -12 -12 5 -7 2 -9 -9 -5 -11 4 -14 2 -11 -7 3 -8 -3
-20 -14 -27 -10 -8 -21 -21 -25 -29 -4 -12 -6 -11 -6 3 -1 9 -6 17 -11 17 -6
0 -8 -11 -4 -26 5 -19 4 -25 -5 -20 -6 4 -9 11 -6 16 10 15 -14 21 -37 9 -23
-12 -23 -12 -5 9 10 11 14 23 9 26 -6 3 -13 -2 -17 -12 -6 -16 -7 -16 -19 1
-13 16 -14 16 -21 -5 l-8 -23 -4 25 c-5 28 -23 52 -23 31 0 -7 -5 -9 -11 -6
-6 4 -16 -1 -23 -10 -10 -14 -17 -15 -34 -6 -17 9 -28 7 -57 -9 -19 -11 -35
-16 -35 -11 0 9 30 25 43 23 4 -1 7 2 7 8 0 13 -3 13 -37 -2 -15 -6 -31 -11
-35 -10 -4 1 -5 -5 -2 -13 4 -8 1 -15 -6 -15 -8 0 -11 9 -7 26 3 19 1 24 -10
20 -8 -3 -23 -6 -34 -6 -10 0 -19 -5 -19 -11 0 -7 9 -9 24 -5 20 5 23 3 19
-14 -6 -23 -10 -24 -46 -7 -15 6 -26 19 -24 27 1 8 -7 16 -18 18 -16 4 -17 2
-7 -10 10 -12 7 -14 -18 -10 -26 4 -28 7 -19 24 6 11 7 18 2 15 -5 -3 -15 -2
-23 4 -10 6 -11 9 -2 9 6 0 12 5 12 10 0 6 -9 10 -20 10 -11 0 -20 -4 -20 -9
0 -5 -7 -12 -16 -15 -11 -4 -14 -1 -9 13 3 12 0 21 -9 24 -10 4 -13 1 -9 -9 3
-7 0 -14 -6 -14 -19 0 -13 48 7 54 10 4 19 14 19 22 0 15 -2 15 -11 2 -12 -16
-76 -14 -76 3 0 14 24 23 28 10 3 -9 7 -9 18 -1 10 9 11 16 1 31 -9 14 -9 21
1 31 9 9 13 5 18 -19 4 -19 11 -30 19 -27 6 3 17 -2 24 -10 10 -12 8 -19 -8
-35 -25 -25 -26 -31 -7 -31 8 0 16 7 20 15 3 8 10 15 16 15 5 0 10 -7 10 -15
0 -8 5 -15 10 -15 6 0 10 -7 10 -15 0 -13 4 -14 20 -5 15 8 18 8 14 -3 -4 -11
8 -15 54 -16 69 -1 119 12 89 24 -12 5 -14 11 -8 19 5 6 9 15 9 21 0 5 6 11
13 14 7 2 9 -1 5 -8 -10 -15 2 -31 19 -25 29 11 28 64 -2 64 -8 0 -11 5 -7 11
3 6 15 9 25 6 14 -4 19 0 19 14 0 16 -3 18 -19 9 -14 -7 -22 -7 -27 2 -4 6 -3
8 3 5 11 -7 24 37 25 82 0 18 2 21 9 10 6 -11 9 -8 9 9 0 13 -4 20 -10 17 -13
-8 -13 8 0 21 14 14 2 44 -16 44 -17 0 -18 12 -2 28 12 12 -3 17 -42 13 -11
-1 -10 1 3 10 12 7 15 14 8 22 -5 7 -12 29 -16 49 -5 26 -11 35 -21 31 -8 -3
-14 1 -14 11 0 9 -5 16 -11 16 -5 0 -15 14 -20 30 -6 17 -15 30 -21 30 -5 0
-6 5 -3 10 3 6 2 10 -2 10 -9 0 -43 69 -43 87 0 12 -30 26 -38 18 -3 -3 1 -5
8 -5 7 0 11 -2 8 -5 -3 -3 -13 -3 -22 1 -13 5 -14 9 -5 20 6 8 16 11 21 8 6
-4 8 2 6 12 -2 11 -9 19 -15 19 -17 0 -83 61 -75 70 4 4 -6 5 -21 3 -21 -4
-27 -2 -23 8 3 8 0 11 -10 7 -13 -5 -19 8 -15 31 1 5 -5 6 -14 2 -8 -3 -23 -9
-32 -12 -17 -5 -17 -5 -1 8 15 13 15 15 -3 26 -24 16 -32 15 -26 -1 3 -9 -6
-13 -30 -14 -27 -1 -33 2 -29 14 4 11 2 13 -9 9 -16 -6 -53 39 -42 51 10 9
-25 32 -40 26 -7 -3 -13 -11 -13 -18 0 -24 -31 -47 -56 -41 -13 4 -24 2 -24
-3 0 -14 -81 -25 -89 -13 -3 6 -13 12 -21 14 -8 2 -20 8 -28 15 -7 7 -19 10
-26 7 -8 -3 -17 -1 -21 5 -4 7 15 10 57 10 98 -2 151 5 156 19 2 6 12 12 23
12 10 0 19 5 19 11 0 6 6 9 14 6 10 -4 14 3 13 29 -1 19 -6 34 -12 34 -13 0
-105 89 -105 103 0 5 -7 7 -15 3 -10 -4 -15 1 -15 15 0 11 -7 22 -16 26 -17 6
-174 164 -174 175 0 3 -13 20 -30 36 -16 17 -30 33 -30 37 0 13 -47 75 -52 69
-9 -9 -65 23 -72 42 -5 12 -2 15 11 9 10 -4 25 -8 33 -9 8 -1 26 -7 39 -15 28
-16 47 -2 34 25 -5 11 -8 26 -7 34 1 8 2 21 3 28 0 7 6 10 12 6 6 -3 9 -17 6
-30 -2 -13 0 -24 4 -24 5 0 9 12 9 28 1 22 2 24 10 11 5 -9 11 -31 12 -50 2
-18 11 -41 21 -51 9 -10 17 -27 17 -38 0 -11 5 -20 10 -20 6 0 10 -10 10 -21
0 -16 3 -19 13 -11 9 8 21 2 45 -19 17 -16 32 -33 32 -38 0 -5 10 -13 23 -17
23 -7 92 -74 89 -86 -1 -5 4 -8 12 -8 16 0 95 -70 80 -70 -5 0 -1 -5 9 -11 9
-5 17 -19 17 -30 0 -11 5 -17 10 -14 6 3 10 0 10 -8 0 -7 11 -20 25 -27 18
-10 22 -16 13 -22 -10 -6 -10 -8 1 -8 7 0 22 -11 33 -25 11 -14 25 -25 32 -25
7 0 22 -11 32 -25 13 -17 20 -21 26 -12 5 7 8 0 9 -18 0 -16 3 -24 6 -17 2 6
9 12 14 12 6 0 8 -4 5 -8 -6 -10 59 -55 82 -57 21 -1 82 -36 82 -47 0 -4 -4
-10 -10 -13 -5 -3 -10 -2 -10 3 0 5 -7 9 -16 9 -14 0 -14 -2 2 -14 22 -16 41
-17 47 0 3 6 6 2 6 -10 1 -12 10 -27 22 -33 17 -10 24 -8 40 11 10 12 22 19
27 14 4 -4 1 -10 -5 -12 -34 -12 6 -43 56 -43 3 0 6 27 6 60 0 33 2 60 5 60 3
0 5 23 5 50 0 31 5 54 13 59 10 6 10 10 -2 20 -10 8 -13 23 -9 47 4 22 2 34
-6 34 -9 0 -9 5 -1 20 6 12 9 33 7 48 l-4 27 -2 -27 c-1 -32 -20 -38 -22 -8
-2 26 -3 28 -22 70 -9 19 -16 31 -17 25 0 -12 -36 59 -44 87 -3 13 -17 36 -31
52 -14 16 -25 32 -25 35 0 3 -12 19 -26 34 -14 15 -23 35 -20 43 3 7 2 14 -3
14 -5 0 -32 34 -60 75 -29 41 -56 75 -61 75 -4 0 -11 11 -14 24 -3 14 -20 33
-36 43 -21 12 -28 23 -24 35 4 13 0 18 -14 18 -11 0 -22 6 -25 14 -3 8 -24 22
-46 32 -22 9 -37 22 -34 27 3 6 2 8 -3 5 -5 -3 -22 1 -39 8 -26 11 -27 13 -8
14 12 0 25 5 29 12 5 8 0 9 -14 6 -12 -4 -20 -2 -17 3 3 4 -7 11 -22 15 -110
24 -171 51 -227 98 -29 24 -29 25 -22 97 5 59 11 79 32 100 25 26 25 26 5 32
-12 3 -25 18 -31 34 -6 15 -16 38 -22 50 -14 28 -1 44 16 20 12 -16 36 -24 36
-12 0 3 -7 22 -15 42 -8 20 -18 60 -21 89 -7 59 -12 63 -37 36 -21 -23 -21
-37 0 -73 25 -42 5 -58 -31 -24 -23 21 -30 23 -46 13 -15 -10 -22 -10 -32 0
-18 18 -38 14 -38 -8 0 -11 14 -29 33 -42 20 -12 42 -40 54 -68 30 -68 66
-218 59 -246 -7 -28 2 -53 13 -35 9 14 51 -23 51 -44 0 -11 -6 -12 -24 -5 -13
5 -27 6 -30 3 -3 -4 -6 1 -6 11 0 13 -5 16 -21 11 -16 -5 -20 -3 -17 11 2 11
-3 19 -12 19 -27 2 -51 17 -46 30 3 8 -2 16 -10 19 -8 3 -14 0 -14 -7 0 -20
-20 16 -20 37 0 18 3 17 28 -7 15 -15 34 -27 40 -27 7 0 15 -7 18 -15 4 -8 13
-15 20 -15 38 0 -53 87 -98 93 -24 4 -24 4 -44 139 -6 35 -8 37 -35 31 -26 -5
-30 -2 -35 25 -6 27 -9 30 -25 21 -11 -5 -19 -19 -19 -30 0 -15 -5 -19 -15
-16 -8 4 -17 2 -20 -4 -4 -5 1 -12 9 -15 8 -3 18 -16 22 -27 15 -52 87 -224
101 -239 8 -9 12 -22 8 -28 -4 -7 2 -14 15 -17 13 -4 23 -16 27 -34 3 -16 9
-26 14 -23 5 3 7 10 4 15 -4 5 -1 9 4 9 13 0 13 -2 2 -34 -7 -16 -6 -36 0 -58
14 -42 23 -125 14 -116 -4 3 -11 25 -16 49 -9 38 -34 102 -60 154 -6 11 -28
32 -49 47 -22 15 -56 53 -77 84 -21 32 -61 83 -90 113 -44 47 -53 53 -59 38
-12 -33 5 -107 36 -153 17 -24 36 -66 43 -94 9 -37 16 -49 27 -45 61 17 66 16
108 -22 53 -47 82 -126 89 -239 6 -90 0 -101 -44 -82 -30 13 -163 136 -163
152 0 23 -57 148 -107 236 -31 52 -55 104 -55 115 0 11 -11 28 -24 38 -17 13
-24 14 -24 5 0 -7 -10 -18 -22 -23 -13 -6 -22 -19 -22 -30 0 -24 61 -125 75
-125 11 0 39 -60 39 -82 0 -7 -7 -3 -15 9 -8 12 -30 24 -48 28 -17 4 -56 22
-85 41 -59 39 -85 40 -90 7 -2 -15 6 -27 25 -39 15 -10 39 -30 53 -45 14 -15
49 -40 78 -54 29 -15 61 -40 73 -56 11 -16 29 -29 40 -29 22 0 25 -13 7 -28
-17 -13 -75 27 -71 48 2 10 -5 15 -23 17 -15 0 -29 5 -33 11 -3 5 -17 12 -31
15 -14 3 -43 10 -65 16 -22 6 -48 8 -57 5 -10 -3 -18 0 -18 6 0 7 -22 10 -62
8 -58 -3 -77 -10 -78 -31 0 -13 102 -54 155 -61 75 -11 161 -43 222 -82 81
-52 66 -62 -127 -79 -31 -3 -56 2 -80 14 -58 30 -210 56 -184 32 5 -5 18 -11
28 -13 11 -1 21 -9 24 -17 6 -18 -45 -7 -69 15 -8 8 -26 14 -40 14 -25 -1 -69
-31 -69 -48 0 -15 95 -62 181 -87 94 -28 166 -31 254 -10 33 8 103 15 156 15
80 0 106 -4 159 -26 88 -36 127 -65 266 -201 122 -119 204 -224 204 -263 0
-31 -43 -43 -135 -36 -157 11 -300 71 -430 181 -58 49 -77 60 -153 86 -30 10
-90 39 -131 63 -71 41 -122 64 -293 130 -86 34 -168 35 -168 2 0 -17 72 -74
118 -92 92 -38 153 -71 233 -125 47 -33 90 -59 96 -59 6 0 16 -7 23 -15 14
-16 2 -32 -38 -54 -30 -16 -187 -12 -212 6 -10 7 -28 30 -40 51 -15 26 -40 48
-89 75 -38 20 -76 37 -85 37 -9 0 -25 6 -36 12 -28 17 -54 0 -58 -39 -4 -39
21 -60 85 -72 28 -6 87 -28 132 -50 44 -22 81 -37 81 -35 0 3 7 -1 15 -10 25
-24 17 -24 -36 1 -28 14 -56 22 -64 20 -7 -3 -17 -1 -23 5 -6 6 -44 6 -116 -1
-58 -6 -112 -8 -121 -5 -10 4 -18 -3 -25 -20 -17 -45 -5 -53 83 -61 45 -4 86
-9 91 -13 6 -3 54 -4 107 -3 57 1 106 -2 118 -9 11 -6 34 -36 50 -68 16 -31
65 -95 110 -142 44 -47 81 -91 81 -98 0 -7 8 -12 17 -10 10 2 18 -1 18 -7 0
-5 4 -16 8 -22 5 -8 3 -13 -7 -14 -44 -3 -63 -2 -81 4 -11 3 -38 8 -60 12 -88
12 -108 19 -132 41 -31 29 -25 30 19 5 20 -11 55 -19 88 -20 30 -1 69 -4 85
-7 17 -4 26 -3 22 2 -10 10 -30 15 -87 20 -62 5 -117 29 -162 70 -21 19 -44
34 -51 34 -23 0 48 40 91 51 55 15 49 35 -9 31 -119 -7 -246 -6 -264 1 -14 6
-16 6 -6 -1 10 -7 10 -11 1 -17 -7 -4 -16 -2 -20 5 -4 7 -12 10 -18 6 -5 -3
-9 2 -8 12 1 14 -10 17 -71 20 l-72 3 -3 -28 c-7 -57 9 -78 87 -116 41 -20
121 -50 177 -65 105 -30 168 -56 168 -71 0 -4 -27 -14 -60 -21 -33 -7 -64 -19
-69 -27 -10 -19 -130 -58 -256 -84 -136 -28 -179 -68 -104 -100 36 -15 173 -6
268 16 68 16 165 61 216 99 54 41 99 49 228 42 129 -6 179 -22 230 -70 60 -59
70 -96 24 -96 -12 0 -51 -9 -87 -20 -36 -11 -88 -20 -115 -20 -81 0 -212 -19
-325 -47 -89 -21 -131 -26 -278 -28 -95 -1 -175 -5 -179 -9 -3 -3 0 -6 8 -7 8
0 4 -4 -8 -9 -31 -12 -29 -28 5 -41 48 -19 311 -49 421 -49 123 0 173 12 292
69 84 40 123 49 133 33 2 -4 -18 -20 -46 -36 -45 -25 -132 -106 -228 -210 -37
-40 -100 -75 -136 -76 -20 0 -58 15 -180 71 -82 37 -196 70 -232 67 -31 -3
-37 -7 -39 -28 -4 -37 14 -53 87 -79 36 -13 99 -40 140 -59 l75 -36 -65 -6
c-36 -3 -90 -3 -120 1 -65 7 -90 -3 -90 -37 0 -65 51 -90 175 -84 181 8 196 6
320 -33 123 -40 241 -92 284 -125 37 -30 23 -64 -41 -96 -67 -33 -132 -34
-260 -1 -199 51 -371 75 -383 55 -13 -21 5 -61 32 -71 15 -5 61 -17 102 -26
125 -25 127 -27 35 -44 -103 -19 -135 -47 -96 -83 18 -15 26 -15 128 8 60 14
134 26 164 27 49 3 55 1 55 -16 0 -25 -158 -154 -232 -191 -46 -22 -52 -28
-43 -44 21 -40 119 -34 212 12 21 10 86 53 146 96 126 90 222 137 312 151 89
15 110 14 110 -4 0 -18 -186 -231 -257 -295 -38 -34 -70 -52 -134 -73 -46 -15
-102 -30 -124 -34 -22 -3 -59 -14 -83 -24 l-43 -19 18 -30 c9 -16 25 -30 35
-30 10 0 59 14 109 31 49 17 95 29 101 27 7 -3 -22 -25 -63 -51 -81 -50 -110
-83 -84 -93 23 -9 64 9 158 70 122 78 140 86 194 86 77 0 291 -32 310 -46 17
-12 15 -16 -22 -54 -22 -22 -67 -56 -101 -75 -50 -28 -79 -36 -180 -49 -122
-16 -244 -57 -244 -81 0 -7 14 -18 30 -25 24 -10 30 -19 30 -41 0 -38 20 -38
117 1 109 44 151 39 139 -17 -7 -31 -39 -66 -88 -96 -16 -10 -28 -24 -28 -31
0 -33 63 -29 113 7 28 19 117 133 117 150 0 16 67 96 111 133 72 61 142 110
188 134 51 25 122 52 128 47 2 -2 -14 -42 -36 -88 -21 -46 -50 -115 -63 -153
-20 -61 -30 -75 -77 -112 -29 -23 -78 -54 -107 -68 -30 -15 -54 -31 -54 -36 0
-6 -6 -10 -14 -10 -24 0 -71 -47 -91 -90 l-19 -42 24 -18 c30 -22 43 -18 103
37 39 37 100 73 121 73 3 0 -1 -15 -9 -34 -11 -25 -13 -56 -8 -116 5 -71 10
-85 32 -106 48 -45 56 -31 56 96 0 110 7 160 24 160 4 0 31 -28 59 -62 28 -35
63 -75 77 -91 32 -34 55 -86 55 -127 0 -33 15 -70 34 -82 17 -12 61 -9 73 3 8
8 17 6 34 -10 25 -23 28 -24 47 -13 20 13 -21 127 -66 180 -55 66 -88 117
-137 218 -56 112 -58 152 -13 267 52 136 116 220 203 266 85 45 150 14 247
-119 40 -55 115 -218 138 -300 26 -91 37 -280 21 -360 -6 -30 -15 -77 -21
-103 -5 -27 -32 -105 -60 -174 -27 -70 -48 -128 -46 -131 3 -2 40 -8 83 -14
81 -10 585 -4 636 8 33 8 34 15 1 95 -83 202 -116 509 -74 675 48 190 224 455
301 454 8 0 47 -18 87 -40 83 -47 94 -64 157 -245 44 -125 48 -182 17 -260
-23 -58 -104 -195 -152 -254 -33 -43 -64 -125 -55 -149 10 -28 48 -30 90 -6
22 12 52 24 67 26 37 5 39 8 42 69 2 42 15 80 61 172 40 80 62 114 69 107 23
-23 49 -110 55 -185 6 -74 8 -80 29 -83 13 -2 34 4 48 12 31 21 31 57 -1 161
-14 44 -25 83 -25 87 0 20 51 -21 104 -83 32 -39 64 -68 70 -66 24 8 15 36
-29 85 -38 42 -43 52 -27 52 10 0 50 -22 87 -50 37 -27 73 -50 80 -50 6 0 20
9 30 20 17 18 17 21 1 45 -22 33 -77 67 -188 115 -128 56 -153 78 -198 174
-41 87 -97 262 -87 272 14 14 60 -10 165 -86 129 -93 179 -148 229 -249 29
-58 85 -144 140 -210 6 -8 53 18 53 30 0 6 -23 36 -50 67 -55 62 -82 124 -62
144 18 18 63 -10 140 -82 67 -64 73 -67 90 -47 14 16 -16 61 -64 97 -46 34
-51 51 -12 40 16 -5 44 -18 62 -28 44 -26 83 -34 106 -22 38 21 18 94 -33 122
-26 14 -149 38 -194 38 -43 0 -176 53 -219 88 -44 34 -69 71 -57 83 5 5 68 17
139 27 111 15 138 16 180 5 27 -7 69 -13 94 -13 25 0 55 -6 67 -13 12 -6 47
-27 78 -45 31 -18 76 -37 101 -41 42 -8 45 -7 42 12 -2 15 -25 30 -85 56 -46
19 -83 39 -83 44 0 10 60 -1 129 -24 69 -24 86 -24 112 2 33 33 11 45 -152 86
-89 22 -161 47 -189 64 -59 37 -243 227 -270 279 -30 59 -22 74 41 68 61 -6
354 -149 413 -202 34 -30 117 -67 206 -92 14 -3 31 -11 39 -17 10 -9 16 -6 27
8 7 11 19 26 25 34 9 10 9 15 -2 22 -12 8 -27 13 -104 33 -11 3 14 4 55 3 64
-2 75 0 78 16 3 15 -5 17 -57 17 -89 0 -251 67 -251 104 0 20 98 36 230 36
104 0 119 2 135 20 10 11 16 23 12 26 -3 3 -44 7 -90 7 -47 1 -83 5 -81 8 2 3
45 9 96 13 51 4 97 11 101 15 10 10 14 88 5 96 -3 3 -61 6 -129 7 -125 0 -220
-15 -298 -48 -47 -20 -142 -19 -181 1 -43 22 -57 61 -32 94 25 35 222 136 290
150 75 15 179 14 287 -4 115 -19 108 -19 144 11 28 23 43 64 24 64 -5 0 -39 4
-78 7 -38 4 -118 7 -177 7 -79 1 -104 4 -97 12 15 18 71 26 224 30 77 2 146 6
153 9 15 6 16 62 1 67 -6 2 -50 0 -98 -5 -47 -4 -99 -6 -116 -4 -29 3 -28 4
25 28 30 14 84 34 118 44 51 15 66 24 73 44 5 14 14 34 19 44 9 14 6 17 -16
17 -31 0 -164 -38 -180 -51 -6 -5 -36 -17 -65 -28 -30 -10 -77 -30 -105 -44
-64 -33 -166 -52 -194 -37 -14 8 -19 17 -15 33 8 30 -24 63 -73 76 -85 24
-163 143 -107 165 20 7 121 -19 169 -45 l44 -23 129 16 c78 10 147 14 178 10
41 -6 59 -3 100 15 27 12 69 25 92 29 28 4 43 12 46 25 9 33 -16 41 -82 28
-48 -10 -83 -11 -169 -1 -59 7 -131 12 -159 12 -28 0 -67 7 -87 15 -22 10
-110 22 -218 30 -226 19 -247 24 -292 77 -46 54 -39 66 72 120 83 41 91 42
177 41 55 0 108 -7 136 -17 61 -21 193 -46 246 -46 64 0 145 21 173 45 14 12
47 30 74 40 55 20 123 76 112 93 -9 15 -143 -31 -198 -69 -36 -24 -53 -29
-106 -29 -54 0 -195 30 -210 45 -3 3 8 5 24 5 17 0 54 15 84 35 40 25 66 35
98 35 23 0 68 9 100 21 31 11 82 28 112 36 70 19 74 22 58 40 -17 20 -91 12
-146 -17 -23 -12 -47 -20 -54 -17 -8 3 -2 9 14 15 27 11 97 62 138 100 45 41
1 68 -60 37 -25 -13 -138 -36 -192 -38 -9 -1 -16 -5 -15 -9 3 -11 -161 -68
-194 -68 -34 0 -56 -24 -40 -44 17 -20 138 -27 180 -10 60 25 57 15 -10 -28
-108 -71 -104 -71 -225 -43 -66 14 -115 31 -126 43 -18 18 -17 20 54 84 103
93 126 111 188 150 85 55 140 69 294 79 77 5 141 11 144 13 11 12 -13 26 -43
26 -23 0 -38 6 -44 18 -11 21 -112 57 -140 49 -55 -14 4 43 89 87 67 34 76 49
35 54 -19 2 -25 8 -21 18 19 48 -95 -1 -179 -78 -10 -10 -25 -16 -33 -13 -7 2
-10 0 -7 -5 3 -6 -1 -10 -9 -10 -9 0 -32 -9 -52 -21 -52 -29 -164 -70 -175
-63 -5 3 -28 7 -51 10 -24 2 -49 7 -56 9 -7 3 -22 0 -33 -5 -26 -15 -47 -1
-22 14 50 29 174 114 224 153 57 44 116 66 207 78 69 8 172 63 145 77 -11 6
-23 4 -65 -11 -51 -17 -86 -9 -40 10 38 16 42 29 8 29 -27 0 -113 -34 -136
-54 -19 -17 -80 -37 -80 -27 0 4 23 18 51 32 29 13 66 36 83 51 17 15 36 28
42 28 11 0 54 42 54 53 0 11 -36 8 -64 -5 -14 -6 -33 -22 -41 -35 -19 -29
-142 -110 -205 -137 -25 -10 -54 -23 -65 -29 -79 -44 -113 -57 -150 -57 -27 0
-51 -7 -68 -20 -14 -11 -28 -20 -32 -20 -4 0 -50 -43 -103 -96 -122 -122 -168
-145 -302 -153 -52 -3 -144 -4 -204 -1 l-110 5 30 25 c16 14 68 70 116 126
108 126 265 264 300 264 8 0 18 4 24 9 5 5 27 14 49 21 23 8 58 32 83 57 31
32 48 43 60 38 87 -35 195 -59 277 -59 126 -1 192 21 262 86 34 33 49 54 42
58 -8 5 -6 15 6 34 16 23 16 29 4 41 -8 7 -26 17 -41 20 -21 5 -30 2 -42 -18
-15 -22 -56 -46 -159 -91 -20 -10 -64 -22 -96 -27 -52 -10 -65 -8 -106 10 -54
24 -59 25 -50 11 3 -5 1 -10 -4 -10 -29 0 15 67 80 122 43 37 49 39 148 48
100 9 165 32 158 54 -6 18 -84 17 -102 0 -32 -32 -26 -4 9 42 20 26 36 51 36
55 0 14 -27 10 -40 -6 -7 -8 -25 -15 -40 -15 -15 0 -47 -7 -71 -15 -24 -9 -70
-19 -101 -22 l-58 -6 15 43 c18 50 18 50 5 50 -5 0 -10 -7 -10 -16 0 -13 -7
-15 -32 -11 -36 6 -70 -3 -68 -18 4 -23 -18 -13 -22 10 -5 22 -2 25 24 25 33
0 100 28 154 65 20 14 43 25 51 25 15 0 12 -5 -40 -62 -32 -34 -50 -104 -26
-96 8 2 20 18 28 34 7 16 26 43 42 59 15 17 32 42 38 57 9 23 7 30 -11 43 -20
13 -24 13 -45 -1 -76 -49 -159 -89 -246 -118 -16 -5 -17 -12 -10 -53 4 -27 8
-72 7 -102 -1 -49 -4 -58 -32 -81 -18 -15 -32 -31 -32 -37 0 -6 -30 -16 -66
-22 -111 -20 -117 5 -43 176 55 125 99 175 181 202 65 22 163 91 173 122 3 10
1 28 -5 40 -15 27 -46 20 -116 -25 -63 -42 -129 -76 -147 -76 -15 0 -90 -75
-107 -109 -7 -13 -14 -42 -16 -64 -5 -47 -23 -75 -35 -55 -6 9 -10 8 -15 -6
-4 -10 -2 -21 5 -26 9 -5 8 -11 -4 -24 -10 -9 -17 -35 -18 -60 -1 -24 -5 -42
-9 -39 -5 2 -8 -3 -8 -11 0 -9 4 -16 10 -16 5 0 -13 -34 -41 -75 -28 -41 -54
-75 -58 -75 -5 0 -13 -12 -20 -26 -6 -15 -14 -24 -17 -21 -3 2 16 38 43 78 26
41 48 76 48 79 1 3 11 37 23 77 13 40 27 112 33 160 11 89 28 128 58 138 35
11 123 114 180 210 33 55 58 102 56 103 -2 2 -18 -4 -35 -14 -20 -12 -43 -42
-63 -82 -18 -35 -40 -68 -49 -73 -26 -14 -22 -2 13 43 17 21 29 41 27 43 -2 3
-21 -7 -41 -20 -28 -20 -40 -37 -54 -83 -27 -89 -46 -115 -88 -119 -31 -3 -37
0 -47 24 l-11 28 -15 -37 c-8 -21 -21 -38 -30 -38 -21 0 -116 -34 -123 -44 -4
-5 -12 -5 -19 -1 -8 5 3 14 29 26 50 22 56 42 9 27 -18 -5 -46 -13 -63 -18
-16 -5 -48 -15 -70 -24 -22 -8 -45 -15 -52 -16 -13 0 -33 52 -33 88 0 33 60
90 136 127 32 17 78 49 101 72 57 56 125 192 121 241 -4 51 -28 48 -52 -5 -11
-24 -22 -43 -25 -43 -9 0 -43 125 -39 145 2 10 -3 20 -9 22 -7 3 -14 -1 -15
-9z m2 -128 c0 -8 -7 -2 -15 14 -19 36 -19 45 0 20 8 -10 14 -26 15 -34z m25
-77 c-4 -54 -8 -61 -55 -105 -28 -27 -57 -48 -63 -48 -7 1 3 14 22 30 18 15
30 33 27 39 -4 7 1 11 12 11 15 0 22 11 30 43 6 23 9 53 5 65 -4 16 -1 22 11
22 13 0 15 -9 11 -57z m-2045 -90 c0 -10 -6 -13 -16 -9 -9 3 -18 6 -20 6 -2 0
-4 6 -4 14 0 9 7 12 20 9 11 -3 20 -12 20 -20z m6 -50 c-10 -10 -19 5 -10 18
6 11 8 11 12 0 2 -7 1 -15 -2 -18z m-191 -91 c-3 -3 -11 0 -18 7 -9 10 -8 11
6 5 10 -3 15 -9 12 -12z m2795 7 c0 -5 -4 -8 -8 -5 -5 3 -28 -12 -52 -34 -24
-21 -48 -36 -55 -34 -6 3 -19 -4 -29 -15 -10 -11 -22 -18 -27 -16 -4 3 -10 1
-14 -5 -3 -5 -13 -10 -21 -10 -8 0 -13 4 -10 9 7 11 88 51 103 51 7 0 28 16
49 35 36 35 64 45 64 24z m-2565 -90 c11 -17 -1 -21 -15 -4 -8 9 -8 15 -2 15
6 0 14 -5 17 -11z m28 -24 c-3 -9 -8 -14 -10 -11 -3 3 -2 9 2 15 9 16 15 13 8
-4z m109 -67 c53 -44 124 -77 222 -103 124 -33 208 -103 330 -275 94 -132 130
-189 193 -309 26 -47 50 -93 54 -101 25 -45 42 -127 46 -222 7 -130 5 -131
-94 -60 -38 26 -104 70 -148 97 -47 29 -109 81 -150 124 -38 41 -136 140 -216
220 -194 195 -259 297 -259 409 0 26 -11 92 -25 147 -14 55 -25 106 -25 113 0
16 11 10 72 -40z m2153 13 c3 -5 1 -12 -5 -16 -5 -3 -10 1 -10 9 0 18 6 21 15
7z m-2588 -80 c-15 -6 -20 8 -12 36 l8 28 6 -30 c4 -16 3 -32 -2 -34z m2461
37 c15 -19 -20 -191 -57 -277 -48 -112 -80 -152 -306 -378 -117 -117 -209
-214 -206 -216 3 -2 1 -2 -6 -1 -7 2 -15 -1 -18 -6 -6 -9 -226 -177 -265 -201
l-25 -16 6 136 c7 152 13 175 89 318 58 110 88 155 195 293 111 144 149 184
208 223 77 49 219 108 295 122 37 7 70 13 73 14 4 0 11 -5 17 -11z m-313 -27
c-3 -6 -11 -8 -17 -5 -6 4 -5 9 3 15 16 10 23 4 14 -10z m-2305 -11 c13 -9 13
-10 0 -10 -8 0 -22 5 -30 10 -13 9 -13 10 0 10 8 0 22 -5 30 -10z m2930 0 c0
-5 -2 -10 -4 -10 -3 0 -8 5 -11 10 -3 6 -1 10 4 10 6 0 11 -4 11 -10z m-2752
-33 c6 -7 8 -24 5 -37 -4 -15 -3 -21 5 -16 13 8 42 -31 42 -57 0 -9 7 -20 15
-23 8 -4 12 -10 9 -15 -3 -5 2 -12 10 -15 9 -3 16 -12 16 -19 0 -6 9 -22 20
-35 11 -13 20 -24 20 -25 0 -2 -18 -2 -40 -1 -39 1 -54 18 -27 30 6 3 4 4 -7
3 -19 -2 -45 27 -34 38 3 4 19 -1 35 -10 28 -17 28 -17 8 2 -27 26 -45 59 -45
83 0 11 -4 20 -10 20 -12 0 -10 -50 3 -68 6 -7 7 -15 4 -18 -12 -13 -24 8 -30
51 -7 44 -23 83 -42 98 -6 4 -4 11 5 17 20 13 26 12 38 -3z m2830 -34 c13 -39
-1 -44 -28 -11 -14 17 -16 28 -8 41 12 22 21 14 36 -30z m257 8 c-3 -6 -14
-11 -23 -11 -10 0 -28 -7 -40 -16 -12 -8 -44 -22 -72 -30 -27 -8 -50 -20 -50
-27 0 -7 -12 -20 -25 -30 -25 -18 -25 -18 -25 7 0 40 20 74 44 74 37 0 93 13
143 32 50 19 60 19 48 1z m-3128 -36 c8 -22 -6 -33 -17 -15 -13 20 -12 30 0
30 6 0 13 -7 17 -15z m3228 5 c-3 -5 -11 -10 -16 -10 -6 0 -7 5 -4 10 3 6 11
10 16 10 6 0 7 -4 4 -10z m-2815 -105 c0 -8 -7 -15 -16 -15 -14 0 -14 3 -4 15
7 8 14 15 16 15 2 0 4 -7 4 -15z m2365 -25 c-10 -11 -24 -16 -33 -13 -12 5
-10 11 14 31 32 28 47 13 19 -18z m-2722 3 c18 -21 18 -73 0 -73 -7 0 -13 6
-13 14 0 8 6 16 13 19 8 3 4 13 -12 31 -14 14 -20 26 -14 26 5 0 17 -8 26 -17z
m2687 -33 c0 -5 -7 -10 -16 -10 -8 0 -12 5 -9 10 3 6 10 10 16 10 5 0 9 -4 9
-10z m-2494 -67 c-10 -11 -56 8 -56 22 0 14 4 14 31 0 17 -9 28 -19 25 -22z
m3025 17 c-22 -19 -51 -27 -51 -15 0 6 59 34 70 34 3 0 -6 -9 -19 -19z m-3131
-2 c0 -4 -6 -8 -12 -9 -10 0 -10 -2 0 -6 6 -2 12 -9 12 -15 0 -6 -9 -3 -20 7
-11 10 -20 21 -20 24 0 4 9 7 20 7 11 0 20 -4 20 -8z m2665 -6 c-3 -3 -11 0
-18 7 -9 10 -8 11 6 5 10 -3 15 -9 12 -12z m-2765 -3 c0 -5 -9 -9 -20 -9 -11
0 -20 4 -20 8 0 4 9 8 20 9 11 1 20 -2 20 -8z m-142 -27 c2 -7 -3 -12 -12 -12
-9 0 -16 7 -16 16 0 17 22 14 28 -4z m2982 3 c14 -16 10 -18 -14 -9 -9 3 -16
10 -16 15 0 14 16 11 30 -6z m342 -12 c-6 -3 -10 -9 -6 -14 3 -5 -10 -9 -28
-9 l-33 1 35 19 c19 10 37 16 40 13 3 -3 -1 -8 -8 -10z m-132 3 c0 -3 -4 -8
-10 -11 -5 -3 -10 -1 -10 4 0 6 5 11 10 11 6 0 10 -2 10 -4z m60 -32 c0 -2 -7
-4 -15 -4 -8 0 -15 4 -15 10 0 5 7 7 15 4 8 -4 15 -8 15 -10z m89 -157 c-27
-21 -79 -46 -79 -38 0 6 15 17 33 25 30 13 56 20 46 13z m-3438 -92 c13 -13
30 -25 37 -25 19 0 53 -38 41 -46 -6 -3 -17 2 -24 12 -11 15 -14 16 -15 4 0
-10 -5 -7 -16 8 -8 12 -20 20 -25 17 -5 -3 -6 1 -3 9 4 11 0 16 -15 16 -12 0
-21 6 -21 15 0 22 15 18 41 -10z m3333 10 c-4 -8 -11 -15 -16 -15 -5 0 -17 -9
-26 -20 -16 -18 -18 -18 -32 -3 -13 15 -12 16 2 10 9 -3 18 -3 20 1 2 6 48 40
55 41 1 1 0 -6 -3 -14z m416 -39 c0 -3 -4 -8 -10 -11 -5 -3 -10 -1 -10 4 0 6
5 11 10 11 6 0 10 -2 10 -4z m-3625 -26 c3 -5 2 -10 -4 -10 -5 0 -13 5 -16 10
-3 6 -2 10 4 10 5 0 13 -4 16 -10z m3569 4 c9 -3 13 -11 10 -16 -4 -7 -9 -6
-14 1 -5 9 -10 8 -20 -4 -10 -12 -10 -15 0 -15 7 0 0 -11 -16 -25 -15 -13 -31
-22 -33 -19 -3 3 2 10 12 15 9 6 17 15 17 21 0 9 -3 9 -12 0 -7 -7 -19 -12
-27 -11 -12 0 -12 2 -3 6 7 3 25 16 39 29 29 27 26 26 47 18z m-3458 -57 c27
-18 71 -48 97 -66 27 -19 52 -43 57 -55 5 -11 9 -15 9 -8 1 6 6 12 12 12 5 0
8 -4 5 -8 -3 -5 6 -15 19 -22 14 -7 25 -16 25 -20 0 -9 -52 0 -67 12 -6 5 -33
11 -60 13 l-48 4 35 -13 c21 -8 37 -9 41 -4 3 5 9 0 12 -11 7 -27 -16 -28 -66
-1 -20 11 -55 21 -76 22 -26 1 -38 5 -34 13 6 18 -20 25 -62 15 -41 -9 -52
-16 -41 -27 4 -4 11 -1 15 6 6 10 17 11 37 6 29 -8 29 -8 -11 -15 -22 -4 -58
-5 -80 -2 -22 3 -61 5 -88 5 -56 -2 -54 14 4 23 31 5 41 12 46 32 l6 25 12
-23 13 -23 7 22 c6 20 12 23 44 17 20 -3 44 -6 53 -6 9 0 23 -7 32 -15 9 -9
17 -11 21 -5 3 6 17 7 31 4 18 -5 24 -2 24 10 0 23 10 20 49 -14 37 -33 76
-44 45 -12 -10 9 -20 17 -24 17 -4 0 -15 8 -25 19 -24 24 -75 45 -92 39 -7 -3
-13 1 -13 8 -1 9 -4 8 -11 -3 -12 -22 -29 -23 -29 -2 0 11 -6 14 -21 9 -19 -6
-20 -5 -8 8 9 9 18 12 24 6 19 -18 25 -8 9 16 -16 24 -15 25 4 25 11 0 42 -15
68 -33z m-124 14 c4 0 5 -8 2 -16 -5 -11 -10 -13 -19 -5 -9 8 -14 7 -17 -1 -5
-16 -28 -2 -28 16 0 12 14 14 62 6z m2296 -11 c-17 -27 -42 -37 -28 -11 8 16
19 24 38 30 1 1 -3 -8 -10 -19z m1130 -42 c-3 -7 -17 -15 -32 -19 -16 -4 -36
-15 -46 -24 -11 -10 -25 -15 -32 -12 -9 4 -8 6 4 6 9 1 18 5 20 10 4 10 69 51
81 51 5 0 7 -5 5 -12z m68 -7 c-7 -10 -133 -101 -141 -101 -15 0 -2 22 18 30
12 6 44 28 72 50 46 37 65 45 51 21z m122 -9 c8 -6 -1 -13 -30 -21 -24 -7 -56
-19 -72 -27 -16 -8 -30 -13 -33 -11 -8 9 69 58 82 53 8 -3 17 -1 20 4 7 12 16
12 33 2z m-483 -42 l50 -6 -58 -8 c-51 -7 -60 -6 -72 10 -21 28 -18 36 8 22
12 -7 45 -15 72 -18z m98 -7 c-7 -2 -19 -2 -25 0 -7 3 -2 5 12 5 14 0 19 -2
13 -5z m60 0 c-7 -2 -19 -2 -25 0 -7 3 -2 5 12 5 14 0 19 -2 13 -5z m-143 -27
c0 -3 -4 -8 -10 -11 -5 -3 -10 -1 -10 4 0 6 5 11 10 11 6 0 10 -2 10 -4z
m-3374 -24 c-2 -4 10 -17 27 -29 27 -18 51 -22 159 -25 l127 -5 93 -55 c130
-77 128 -76 207 -89 53 -8 115 -8 234 1 290 20 303 19 377 -17 71 -35 97 -56
151 -123 103 -129 179 -351 179 -527 0 -66 -15 -69 -82 -15 -311 246 -353 276
-471 331 -87 42 -140 57 -262 76 -122 19 -181 37 -265 83 -95 51 -249 154
-306 205 -27 24 -68 56 -91 70 -23 15 -49 40 -58 57 -9 16 -19 30 -24 30 -5 0
-11 9 -14 20 -3 13 0 20 10 20 8 0 12 -4 9 -8z m3550 -27 c7 -16 -9 -33 -85
-95 -24 -19 -57 -47 -74 -62 -18 -15 -35 -28 -39 -28 -19 0 -5 21 29 47 20 15
52 43 72 61 l36 33 -38 -22 c-20 -12 -50 -35 -65 -51 -15 -16 -56 -44 -92 -63
-36 -18 -109 -67 -163 -108 -120 -93 -251 -148 -409 -173 -244 -38 -384 -115
-623 -343 -38 -37 -79 -74 -91 -82 -11 -8 -23 -21 -26 -29 -4 -11 -9 -7 -19
13 -10 23 -10 51 -1 151 13 140 50 262 110 360 50 83 142 173 210 204 65 29
123 32 482 17 216 -8 233 -5 307 54 44 34 186 84 288 101 39 7 86 15 105 20
55 13 80 11 86 -5z m-2866 -15 c32 -11 67 -16 84 -13 21 4 27 3 22 -5 -4 -8 0
-12 11 -12 22 0 63 -27 63 -41 0 -6 -7 -4 -15 4 -17 18 -107 16 -130 -3 -12
-10 -18 -10 -30 0 -8 6 -19 9 -24 6 -15 -10 -24 13 -11 29 13 15 7 19 -35 29
-22 5 -26 4 -15 -4 8 -5 24 -10 35 -10 19 -1 19 -1 1 -15 -10 -7 -15 -18 -11
-24 14 -24 -50 -10 -68 14 -16 22 -16 25 -2 25 9 0 14 4 10 9 -6 11 23 30 45
30 8 0 40 -8 70 -19z m428 -55 c-3 -3 -9 2 -12 12 -6 14 -5 15 5 6 7 -7 10
-15 7 -18z m-563 -5 c3 -6 -1 -7 -9 -4 -18 7 -21 14 -7 14 6 0 13 -4 16 -10z
m1550 0 c-3 -5 -11 -10 -16 -10 -6 0 -7 5 -4 10 3 6 11 10 16 10 6 0 7 -4 4
-10z m865 -10 c-24 -15 -37 -11 -16 5 11 8 22 12 25 9 3 -3 -1 -9 -9 -14z
m-2892 -26 c21 -21 13 -24 -18 -6 -16 9 -30 20 -30 24 0 10 32 -3 48 -18z
m979 10 c-3 -3 -12 -4 -19 -1 -8 3 -5 6 6 6 11 1 17 -2 13 -5z m2968 -10 c-52
-38 -100 -65 -126 -71 -16 -3 -32 -10 -35 -14 -3 -5 -17 -9 -32 -8 l-27 1 26
9 c15 6 67 30 115 54 93 47 112 54 79 29z m-4447 -34 c34 -7 62 -17 62 -22 0
-6 7 -8 15 -4 9 3 15 0 15 -10 0 -8 4 -13 9 -10 5 3 14 -1 21 -9 17 -21 11
-19 -64 16 -37 17 -75 29 -85 26 -10 -2 -29 4 -42 14 -13 11 -17 17 -9 15 8
-2 43 -10 78 -16z m97 0 c3 -5 1 -10 -4 -10 -6 0 -11 5 -11 10 0 6 2 10 4 10
3 0 8 -4 11 -10z m4185 0 c0 -5 -8 -10 -17 -10 -15 0 -16 2 -3 10 19 12 20 12
20 0z m-50 -19 c0 -10 -72 -41 -96 -41 -40 0 9 26 94 49 1 1 2 -3 2 -8z
m-3648 -43 c-6 -6 -14 -9 -17 -6 -3 3 -3 13 1 22 5 12 10 14 17 7 8 -8 8 -14
-1 -23z m-310 -18 c16 -15 18 -20 7 -20 -16 0 -39 19 -39 32 0 13 9 9 32 -12z
m3791 7 c9 -1 17 -5 17 -10 0 -5 -14 -7 -31 -3 -17 3 -38 6 -45 6 -8 0 -14 5
-14 10 0 6 11 8 28 4 15 -3 35 -6 45 -7z m-3329 -74 c46 -33 143 -90 169 -99
9 -3 17 -10 17 -15 0 -5 7 -9 16 -9 9 0 12 -5 8 -12 -5 -8 0 -9 15 -5 38 9 98
-24 84 -47 -3 -5 -1 -6 5 -2 7 4 12 3 12 -3 0 -5 -6 -12 -12 -14 -8 -3 -7 -6
4 -6 22 -1 34 19 17 30 -7 4 -10 12 -5 16 5 4 11 2 13 -4 3 -7 11 -13 19 -13
8 0 14 -5 14 -11 0 -8 7 -7 21 3 19 12 32 12 103 -2 112 -23 132 -30 115 -41
-10 -6 -7 -9 11 -10 14 -1 30 -1 35 0 6 0 16 -9 24 -20 11 -18 11 -23 -1 -30
-9 -6 -5 -8 12 -7 19 2 24 -1 22 -15 -2 -13 2 -17 15 -15 10 2 22 8 26 13 6 7
10 7 13 0 15 -34 22 -39 38 -26 13 11 19 11 31 1 8 -7 12 -16 9 -21 -3 -5 1
-9 8 -10 20 -1 103 -65 101 -78 -3 -13 53 -72 61 -64 3 4 6 1 6 -5 0 -7 -9
-12 -20 -12 -11 0 -20 4 -20 10 0 15 -33 50 -47 50 -6 0 -10 9 -8 20 3 14 -2
20 -16 20 -10 0 -19 -4 -19 -10 0 -5 5 -10 10 -10 6 0 10 -4 10 -10 0 -16 -15
-12 -40 10 -17 15 -20 23 -11 33 11 14 6 27 -11 27 -5 0 -6 -5 -3 -10 4 -6 1
-17 -5 -25 -6 -8 -9 -19 -5 -25 3 -5 -1 -10 -10 -10 -9 0 -13 5 -10 11 11 16
-26 50 -47 43 -20 -6 -25 11 -5 19 6 3 2 6 -9 6 -12 1 -27 7 -33 15 -7 8 -21
12 -31 9 -14 -4 -20 0 -20 11 0 10 5 14 10 11 6 -3 10 -1 10 4 0 17 -18 13
-28 -5 -5 -10 -15 -14 -21 -10 -9 6 -9 11 0 22 9 11 5 13 -27 11 -32 -2 -39 1
-38 16 2 14 -1 15 -13 5 -12 -9 -16 -9 -24 3 -8 12 -11 11 -23 -3 -7 -10 -17
-18 -21 -18 -4 0 -2 6 4 14 10 12 6 16 -20 21 -18 4 -39 14 -48 22 -9 10 -24
13 -43 9 -26 -5 -29 -3 -23 14 4 12 2 20 -5 20 -6 0 -9 -4 -5 -9 3 -5 1 -12
-5 -16 -5 -3 -10 -1 -10 5 0 6 -4 8 -10 5 -5 -3 -10 -15 -10 -26 0 -10 -4 -19
-10 -19 -5 0 -10 7 -10 15 0 8 -7 15 -15 15 -8 0 -15 7 -15 16 0 14 -1 14 -16
0 -20 -20 -35 -21 -28 -1 5 11 2 14 -12 8 -11 -3 -22 -11 -26 -16 -3 -6 -11 8
-17 31 -10 34 -16 41 -34 39 -16 -1 -22 3 -20 17 1 15 -4 17 -29 12 -26 -5
-29 -3 -23 14 6 18 3 19 -24 14 -29 -6 -31 -4 -31 22 0 38 -14 58 -35 51 -9
-4 -13 -3 -10 3 7 12 -31 51 -41 42 -4 -4 -4 1 0 12 5 15 2 17 -13 13 -18 -4
-31 9 -31 34 0 8 38 -14 114 -68z m3561 67 c-3 -5 -14 -10 -23 -10 -15 0 -15
2 -2 10 20 13 33 13 25 0z m-4085 -14 c0 -3 -4 -8 -10 -11 -5 -3 -10 -1 -10 4
0 6 5 11 10 11 6 0 10 -2 10 -4z m3530 -19 c0 -2 -11 -17 -25 -33 -14 -16 -25
-35 -25 -41 0 -7 -4 -13 -10 -13 -5 0 -10 -7 -10 -16 0 -8 -5 -12 -10 -9 -6 4
-24 -1 -42 -9 -17 -9 -37 -16 -45 -16 -7 0 -13 -4 -13 -8 0 -5 -7 -17 -16 -28
-8 -10 -13 -13 -9 -6 8 15 -17 16 -32 1 -6 -6 -9 -19 -5 -28 5 -13 3 -14 -10
-3 -12 10 -18 9 -28 -3 -7 -8 -17 -12 -24 -8 -6 4 -5 -1 3 -10 12 -15 11 -17
-13 -17 -14 0 -26 -5 -26 -11 0 -5 -5 -7 -11 -3 -8 4 -3 12 12 20 23 13 24 13
2 14 -12 0 -29 3 -39 7 -10 4 -15 2 -11 -3 3 -6 -10 -11 -30 -11 -20 -1 -40
-7 -44 -15 -8 -11 -10 -11 -18 1 -7 11 -15 11 -45 1 -20 -6 -63 -10 -95 -8
-38 2 -62 -1 -70 -9 -6 -7 -21 -13 -33 -13 -21 0 -21 -1 -3 -14 18 -13 18 -14
-6 -22 -13 -4 -27 -7 -32 -6 -4 1 -6 -4 -5 -10 2 -7 -3 -12 -11 -10 -7 1 -19
-2 -25 -8 -13 -10 -26 -4 -26 12 0 6 5 8 12 6 14 -5 59 32 53 42 -7 11 84 44
130 47 22 2 49 7 60 12 21 8 173 48 236 60 34 7 129 67 129 81 0 9 80 73 85
68 3 -2 -20 -30 -50 -61 -66 -70 -46 -76 25 -7 29 28 54 50 56 50 2 0 4 -9 4
-20 0 -31 18 -24 25 10 5 21 13 30 26 30 10 0 19 5 19 10 0 6 5 10 10 10 6 0
10 -2 10 -3z m0 -53 c0 -7 -27 -34 -34 -34 -4 0 -1 9 6 20 12 19 28 27 28 14z
m-3055 -35 c4 -6 -3 -9 -19 -7 -34 5 -40 13 -11 16 13 1 27 -3 30 -9z m3075
-15 c0 -2 -7 -4 -15 -4 -8 0 -15 4 -15 10 0 5 7 7 15 4 8 -4 15 -8 15 -10z
m-3243 0 c-3 -3 -12 -4 -19 -1 -8 3 -5 6 6 6 11 1 17 -2 13 -5z m199 -12 c-9
-9 -21 -12 -33 -7 -17 7 -17 8 2 14 34 13 48 10 31 -7z m3741 -8 c-3 -3 -12
-4 -19 -1 -8 3 -5 6 6 6 11 1 17 -2 13 -5z m-1152 -144 c-3 -5 -11 -10 -16
-10 -6 0 -7 5 -4 10 3 6 11 10 16 10 6 0 7 -4 4 -10z m112 -16 c-3 -3 -12 -4
-19 -1 -8 3 -5 6 6 6 11 1 17 -2 13 -5z m-2266 -17 c-1 -12 -15 -9 -19 4 -3 6
1 10 8 8 6 -3 11 -8 11 -12z m1757 -10 c-7 -8 -19 -14 -26 -14 -11 0 -10 4 4
14 10 7 22 13 26 13 5 0 3 -6 -4 -13z m-1418 -31 c-6 -6 -15 -4 -25 4 -23 19
-18 29 9 17 15 -7 21 -16 16 -21z m1550 14 c0 -5 -4 -10 -9 -10 -6 0 -13 5
-16 10 -3 6 1 10 9 10 9 0 16 -4 16 -10z m-180 -4 c0 -2 -12 -12 -27 -21 l-28
-18 19 21 c17 20 36 29 36 18z m585 -26 c3 -5 2 -10 -4 -10 -5 0 -13 5 -16 10
-3 6 -2 10 4 10 5 0 13 -4 16 -10z m-470 -10 c3 -5 1 -10 -4 -10 -6 0 -11 5
-11 10 0 6 2 10 4 10 3 0 8 -4 11 -10z m541 -16 c-3 -9 -6 -17 -6 -20 0 -2 -7
-1 -15 2 -8 4 -15 10 -15 16 0 5 5 6 10 3 6 -3 10 -1 10 4 0 6 5 11 11 11 6 0
8 -7 5 -16z m-2244 -42 c47 -23 84 -51 123 -94 30 -34 55 -64 55 -67 0 -3 -21
-17 -47 -31 -27 -13 -65 -34 -85 -47 -111 -68 -240 -79 -453 -38 -71 14 -164
25 -207 25 -77 0 -78 1 -68 21 31 56 132 135 256 198 102 52 179 71 279 68 68
-2 91 -7 147 -35z m1588 28 c0 -5 -6 -10 -13 -10 -8 0 -22 -9 -32 -20 -10 -11
-22 -17 -27 -14 -5 3 6 17 24 30 37 26 48 29 48 14z m490 -3 c52 -19 80 -36
129 -79 24 -21 70 -47 102 -59 69 -25 95 -48 119 -104 10 -24 24 -45 32 -48 7
-3 -30 -6 -82 -6 -52 -1 -160 -8 -239 -18 -120 -14 -156 -14 -214 -5 -118 21
-263 88 -291 135 -9 16 -4 25 38 62 117 104 302 160 406 122z m-1255 -7 c3 -5
1 -10 -4 -10 -6 0 -11 5 -11 10 0 6 2 10 4 10 3 0 8 -4 11 -10z m662 -22 c-22
-16 -25 -23 -15 -29 8 -5 9 -9 2 -9 -12 0 -40 28 -33 33 5 3 62 25 69 26 3 0
-8 -9 -23 -21z m108 -11 c-27 -17 -59 -40 -69 -49 -11 -10 -24 -18 -29 -18 -5
0 -4 -6 2 -13 9 -11 5 -14 -19 -15 -17 0 -30 2 -30 4 0 3 14 19 31 37 17 18
28 26 25 20 -4 -7 -4 -13 -1 -13 4 0 12 6 20 13 38 36 85 66 105 66 8 1 -7
-14 -35 -32z m685 13 c0 -5 -2 -10 -4 -10 -3 0 -8 5 -11 10 -3 6 -1 10 4 10 6
0 11 -4 11 -10z m289 -33 c12 -18 11 -19 -14 -13 -15 4 -33 2 -40 -4 -9 -8
-14 -6 -19 6 -5 12 -2 15 10 10 11 -4 15 -2 11 8 -9 22 38 16 52 -7z m101 13
c0 -6 -8 -10 -17 -10 -10 0 -28 -3 -40 -6 -16 -5 -23 -2 -23 8 0 10 12 15 40
16 22 1 40 -3 40 -8z m-1830 -15 c0 -12 -19 -12 -23 0 -4 9 -1 12 9 8 7 -3 14
-7 14 -8z m1841 -16 c-12 -12 -25 -18 -28 -15 -9 9 18 36 35 36 12 0 11 -5 -7
-21z m-1256 -19 c-9 -16 -17 -30 -19 -30 -3 0 1 14 7 30 6 17 15 30 19 30 5 0
2 -13 -7 -30z m155 15 c0 -2 -10 -9 -22 -15 -22 -11 -22 -10 -4 4 21 17 26 19
26 11z m832 -7 c14 14 48 16 48 2 0 -5 7 -10 15 -10 8 0 15 -7 15 -17 0 -15
-1 -15 -18 0 -21 19 -52 23 -52 7 0 -6 11 -15 24 -21 16 -8 23 -19 22 -35 -1
-29 -4 -29 -25 -6 -9 10 -34 27 -55 38 -22 11 -42 26 -44 34 -3 7 0 10 5 7 5
-3 15 -2 23 3 9 6 17 5 22 -3 5 -9 10 -9 20 1z m364 -37 c14 -19 13 -20 -3
-14 -14 5 -50 25 -72 39 -1 2 0 7 3 13 8 13 53 -10 72 -38z m-3693 28 c-8 -8
-16 -8 -30 0 -16 9 -14 10 12 11 21 0 26 -3 18 -11z m3830 4 c-7 -2 -21 -2
-30 0 -10 3 -4 5 12 5 17 0 24 -2 18 -5z m-2606 -35 c-3 -8 -6 -5 -6 6 -1 11
2 17 5 13 3 -3 4 -12 1 -19z m83 2 c0 -5 -7 -10 -15 -10 -8 0 -15 5 -15 10 0
6 7 10 15 10 8 0 15 -4 15 -10z m971 -17 c-8 -15 -10 -15 -11 -2 0 17 10 32
18 25 2 -3 -1 -13 -7 -23z m-24 -8 c0 -8 -3 -13 -5 -10 -3 3 -16 -2 -29 -10
-13 -9 -23 -13 -23 -10 0 9 23 31 40 38 8 3 15 6 16 6 0 1 1 -6 1 -14z m198
-4 c-3 -6 -11 -11 -16 -11 -5 0 -4 6 3 14 14 16 24 13 13 -3z m-1109 -6 c4 -8
17 -15 30 -15 27 0 31 -12 11 -29 -10 -8 -19 -4 -36 20 -14 19 -28 28 -37 25
-9 -3 -12 -1 -9 4 9 15 35 12 41 -5z m1019 -13 c-14 -2 -22 -8 -19 -15 3 -8
-5 -13 -18 -14 -13 -1 -33 -13 -45 -27 -14 -17 -23 -21 -26 -13 -3 7 -6 2 -6
-10 -1 -13 -6 -23 -12 -23 -6 0 -9 7 -5 15 3 8 1 15 -4 15 -6 0 -10 -6 -10
-14 0 -7 -7 -19 -15 -26 -12 -10 -15 -9 -15 4 0 9 -7 19 -16 23 -15 5 -15 7 0
15 9 5 16 16 16 24 0 8 5 12 11 8 8 -4 8 -9 0 -17 -6 -6 -11 -18 -11 -26 1
-11 8 -7 21 12 11 15 27 27 35 27 8 0 14 5 14 10 0 6 7 10 16 10 8 0 12 5 9
10 -4 7 2 9 17 5 15 -4 30 0 43 13 14 13 23 15 31 8 9 -8 6 -12 -11 -14z
m-445 3 c0 -2 -10 -10 -22 -16 -21 -11 -22 -11 -9 4 13 16 31 23 31 12z m-750
-15 c0 -5 -2 -10 -4 -10 -3 0 -8 5 -11 10 -3 6 -1 10 4 10 6 0 11 -4 11 -10z
m555 -8 c-3 -3 -11 0 -18 7 -9 10 -8 11 6 5 10 -3 15 -9 12 -12z m517 -4 c-6
-6 -15 -8 -19 -4 -4 4 -1 11 7 16 19 12 27 3 12 -12z m-1032 2 c0 -5 -5 -10
-11 -10 -5 0 -7 5 -4 10 3 6 8 10 11 10 2 0 4 -4 4 -10z m136 -4 c8 -8 14 -20
14 -27 0 -7 -9 -4 -20 9 -29 31 -24 48 6 18z m994 -26 c0 -13 -28 -25 -38 -16
-3 4 0 11 8 16 20 13 30 12 30 0z m-235 -40 c-18 -20 -35 -26 -35 -12 0 4 10
12 23 18 32 16 32 16 12 -6z m-682 3 c-7 -2 -9 -12 -6 -21 6 -15 5 -15 -10 -3
-23 18 -21 27 6 28 12 0 17 -1 10 -4z m205 -18 c-3 -3 -9 2 -12 12 -6 14 -5
15 5 6 7 -7 10 -15 7 -18z m916 -10 c4 -11 -2 -15 -24 -15 -29 0 -45 12 -33
24 12 12 51 6 57 -9z m892 0 c18 -15 18 -15 -5 -13 -14 2 -26 9 -29 16 -5 17
10 15 34 -3z m679 -5 c-3 -5 -13 -10 -21 -10 -8 0 -12 5 -9 10 3 6 13 10 21
10 8 0 12 -4 9 -10z m-3942 -17 c-7 -2 -19 -2 -25 0 -7 3 -2 5 12 5 14 0 19
-2 13 -5z m100 0 c-7 -2 -19 -2 -25 0 -7 3 -2 5 12 5 14 0 19 -2 13 -5z m2317
-8 c-7 -9 -15 -13 -17 -11 -7 7 7 26 19 26 6 0 6 -6 -2 -15z m-1080 -45 c0 -5
-7 -7 -15 -4 -8 4 -12 10 -9 15 6 11 24 2 24 -11z m1250 8 c73 -12 142 -37
103 -38 -41 0 -168 22 -198 35 l-30 12 30 1 c17 1 59 -4 95 -10z m290 -3 c-29
-15 -132 -27 -124 -14 3 5 18 9 35 9 16 0 29 4 29 8 0 4 19 8 43 9 40 2 41 1
17 -12z m575 -31 c24 -37 13 -40 -14 -4 -12 17 -17 30 -12 30 5 0 16 -12 26
-26z m-1740 6 c3 -5 1 -10 -4 -10 -6 0 -11 5 -11 10 0 6 2 10 4 10 3 0 8 -4
11 -10z m592 -36 c123 -57 232 -76 398 -71 124 3 151 7 230 35 119 40 276 82
309 82 46 0 206 -77 206 -99 0 -9 -92 -52 -155 -71 -57 -18 -87 -34 -197 -106
-111 -73 -144 -84 -363 -114 -255 -36 -348 -76 -590 -258 -152 -113 -180 -138
-233 -206 l-22 -29 -2 89 c-5 187 3 324 23 402 31 122 90 231 174 318 70 75
73 77 109 70 20 -4 71 -23 113 -42z m-2191 25 c108 -9 144 -17 253 -55 242
-86 401 -79 627 28 88 41 137 47 184 23 45 -23 124 -125 169 -217 66 -133 82
-213 88 -435 6 -200 2 -221 -33 -168 -18 28 -190 173 -264 222 -46 32 -132 82
-215 128 -86 47 -203 84 -296 95 -159 18 -207 30 -297 71 -92 43 -99 46 -177
91 -105 60 -163 86 -250 113 -49 15 -94 30 -99 33 -13 7 138 79 171 81 7 1 69
-4 139 -10z m1264 -9 c0 -5 -4 -10 -10 -10 -5 0 -10 5 -10 10 0 6 5 10 10 10
6 0 10 -4 10 -10z m50 -4 c0 -3 -4 -8 -10 -11 -5 -3 -10 -1 -10 4 0 6 5 11 10
11 6 0 10 -2 10 -4z m30 0 c0 -3 -4 -8 -10 -11 -5 -3 -10 -1 -10 4 0 6 5 11
10 11 6 0 10 -2 10 -4z m137 -18 c-3 -8 -6 -5 -6 6 -1 11 2 17 5 13 3 -3 4
-12 1 -19z m-1812 -46 c-9 -9 -35 8 -35 24 0 16 2 16 20 -1 11 -10 18 -20 15
-23z m3719 2 c3 -8 2 -12 -4 -9 -6 3 -10 10 -10 16 0 14 7 11 14 -7z m-339
-233 c-2 -5 -14 -11 -26 -14 -20 -5 -20 -5 -4 13 17 18 41 18 30 1z m-2805
-41 c0 -5 -2 -10 -4 -10 -3 0 -8 5 -11 10 -3 6 -1 10 4 10 6 0 11 -4 11 -10z
m2660 -4 c0 -3 -4 -8 -10 -11 -5 -3 -10 -1 -10 4 0 6 5 11 10 11 6 0 10 -2 10
-4z m40 -14 c0 -5 -9 -17 -19 -26 -23 -21 -38 -4 -15 18 17 17 34 21 34 8z
m-143 -8 c-3 -3 -12 -4 -19 -1 -8 3 -5 6 6 6 11 1 17 -2 13 -5z m-2917 -143
c0 -5 -7 -12 -16 -15 -22 -9 -24 -8 -24 9 0 8 9 15 20 15 11 0 20 -4 20 -9z
m740 -137 c85 -51 130 -83 130 -94 0 -27 -115 -122 -223 -183 -34 -20 -42 -19
-392 1 l-110 7 59 45 c33 25 78 61 100 81 74 64 160 127 216 159 75 42 130 38
220 -16z m2046 11 c27 -14 100 -70 163 -125 62 -55 128 -112 147 -127 19 -14
34 -29 34 -32 0 -8 -151 -15 -315 -15 -131 1 -178 16 -300 97 -62 41 -81 59
-83 79 -5 43 54 84 183 127 79 27 111 26 171 -4z m-2176 -783 c0 -5 -21 -30
-47 -56 -59 -59 -74 -38 -16 23 36 37 63 51 63 33z"/>
<path d="M6325 10260 c-3 -5 -1 -10 4 -10 6 0 11 5 11 10 0 6 -2 10 -4 10 -3
0 -8 -4 -11 -10z"/>
<path d="M6320 9835 c7 -8 18 -15 24 -15 6 0 19 -9 29 -20 9 -11 22 -20 29
-20 9 0 9 3 1 11 -6 6 -9 19 -6 28 4 14 3 14 -6 1 -10 -13 -14 -12 -30 8 -11
12 -27 22 -36 22 -14 0 -15 -3 -5 -15z"/>
<path d="M6475 9709 c-11 -16 -1 -19 13 -3 7 8 8 14 3 14 -5 0 -13 -5 -16 -11z"/>
<path d="M6535 9710 c-3 -5 -2 -10 4 -10 5 0 13 5 16 10 3 6 2 10 -4 10 -5 0
-13 -4 -16 -10z"/>
<path d="M6700 9700 c0 -12 8 -12 35 0 18 8 17 9 -7 9 -16 1 -28 -3 -28 -9z"/>
<path d="M6786 9681 c-3 -5 1 -11 9 -14 9 -4 12 -1 8 9 -6 16 -10 17 -17 5z"/>
<path d="M6830 9656 c0 -2 9 -6 20 -9 11 -3 18 -1 14 4 -5 9 -34 13 -34 5z"/>
<path d="M6935 9610 c3 -5 8 -10 11 -10 2 0 4 5 4 10 0 6 -5 10 -11 10 -5 0
-7 -4 -4 -10z"/>
<path d="M7095 9510 c4 -6 11 -8 16 -5 14 9 11 15 -7 15 -8 0 -12 -5 -9 -10z"/>
<path d="M9818 11783 c7 -3 16 -2 19 1 4 3 -2 6 -13 5 -11 0 -14 -3 -6 -6z"/>
<path d="M7610 11776 c0 -2 6 -18 14 -36 8 -20 16 -28 20 -21 12 19 26 12 23
-10 -1 -12 4 -24 11 -26 7 -3 10 1 6 10 -8 21 11 30 26 12 16 -19 44 -19 60 0
8 9 9 15 2 15 -6 0 -14 -5 -18 -11 -5 -8 -10 -6 -16 5 -5 9 -16 16 -23 16 -8
0 -15 6 -15 13 0 9 -3 8 -9 -2 -6 -9 -11 -10 -15 -2 -4 6 -12 9 -17 5 -13 -7
-41 15 -33 27 3 5 0 9 -5 9 -6 0 -11 -2 -11 -4z"/>
<path d="M9575 11730 c-3 -5 1 -10 10 -10 9 0 13 5 10 10 -3 6 -8 10 -10 10
-2 0 -7 -4 -10 -10z"/>
<path d="M8833 11666 c2 -34 -14 -43 -36 -21 -9 8 -19 15 -23 15 -5 0 -3 -5 4
-12 7 -7 12 -26 12 -43 0 -17 5 -36 11 -42 8 -8 8 -13 0 -17 -6 -4 -11 -2 -11
4 0 6 -7 18 -15 26 -8 9 -15 29 -15 46 l0 30 -19 -23 c-13 -17 -16 -26 -8 -31
8 -5 6 -17 -6 -43 -9 -20 -17 -50 -17 -68 -1 -53 -19 -117 -56 -191 l-35 -71
34 39 c22 26 36 35 41 28 4 -7 2 -12 -3 -12 -6 0 -11 -7 -11 -15 0 -21 16 -19
43 7 33 34 59 87 71 147 7 30 17 56 23 58 8 3 8 -8 2 -38 -6 -23 -8 -49 -6
-58 5 -25 23 16 30 67 4 32 2 42 -9 42 -20 0 -17 17 11 78 30 65 31 73 6 103
l-20 24 2 -29z m-72 -139 c-8 -8 -11 -7 -11 4 0 20 13 34 18 19 3 -7 -1 -17
-7 -23z m-51 -217 c0 -5 -2 -10 -4 -10 -3 0 -8 5 -11 10 -3 6 -1 10 4 10 6 0
11 -4 11 -10z"/>
<path d="M7710 11650 c0 -5 7 -10 15 -10 8 0 15 5 15 10 0 6 -7 10 -15 10 -8
0 -15 -4 -15 -10z"/>
<path d="M8995 11557 c5 -17 1 -34 -9 -49 -25 -35 -19 -43 9 -10 29 34 31 54
9 73 -13 11 -14 9 -9 -14z"/>
<path d="M6822 11539 c2 -6 8 -10 13 -10 5 0 11 4 13 10 2 6 -4 11 -13 11 -9
0 -15 -5 -13 -11z"/>
<path d="M8808 11327 c-5 -10 -8 -33 -8 -50 1 -27 2 -29 11 -14 6 9 9 32 7 50
-2 25 -5 28 -10 14z"/>
<path d="M8275 11090 c3 -5 8 -10 11 -10 2 0 4 5 4 10 0 6 -5 10 -11 10 -5 0
-7 -4 -4 -10z"/>
<path d="M8150 10945 c-20 -24 -5 -28 21 -6 19 16 20 20 8 21 -9 0 -22 -7 -29
-15z"/>
<path d="M8106 10882 c-4 -7 -23 -19 -42 -27 -43 -18 -67 -41 -58 -56 4 -8 3
-9 -4 -5 -7 4 -12 2 -12 -3 0 -6 6 -11 13 -11 15 1 96 50 82 50 -5 0 1 9 13
20 13 11 22 25 20 32 -3 9 -6 9 -12 0z"/>
<path d="M8736 10853 c-6 -14 -5 -15 5 -6 7 7 10 15 7 18 -3 3 -9 -2 -12 -12z"/>
<path d="M7990 10760 c0 -6 7 -10 15 -10 8 0 15 2 15 4 0 2 -7 6 -15 10 -8 3
-15 1 -15 -4z"/>
<path d="M7647 10583 c-4 -3 -7 -11 -7 -17 0 -6 5 -5 12 2 6 6 9 14 7 17 -3 3
-9 2 -12 -2z"/>
<path d="M7707 10484 c-7 -7 2 -34 12 -34 4 0 7 9 7 20 0 20 -7 25 -19 14z"/>
<path d="M7785 10430 c-3 -5 -1 -10 4 -10 6 0 11 5 11 10 0 6 -2 10 -4 10 -3
0 -8 -4 -11 -10z"/>
<path d="M7677 10335 c-4 -8 -3 -16 1 -19 4 -3 9 4 9 15 2 23 -3 25 -10 4z"/>
<path d="M9138 10323 c-10 -2 -18 -8 -18 -13 0 -10 38 -1 46 11 5 9 1 10 -28
2z"/>
<path d="M7030 10172 c0 -7 -7 -12 -16 -12 -8 0 -12 -5 -8 -11 4 -7 11 -6 22
5 9 8 13 19 9 22 -4 4 -7 2 -7 -4z"/>
<path d="M7190 10120 c0 -5 5 -10 10 -10 6 0 10 5 10 10 0 6 -4 10 -10 10 -5
0 -10 -4 -10 -10z"/>
<path d="M7410 10100 c0 -5 5 -10 10 -10 6 0 10 5 10 10 0 6 -4 10 -10 10 -5
0 -10 -4 -10 -10z"/>
<path d="M9535 9920 c-3 -5 1 -10 10 -10 9 0 13 5 10 10 -3 6 -8 10 -10 10 -2
0 -7 -4 -10 -10z"/>
<path d="M9588 9908 c8 -8 18 -8 34 -1 21 9 20 10 -11 11 -25 0 -31 -2 -23
-10z"/>
<path d="M5364 9886 c-20 -31 -13 -54 18 -60 13 -3 78 -17 144 -32 86 -19 130
-24 150 -18 l29 8 -33 4 c-18 2 -36 10 -39 17 -6 18 -135 80 -183 90 -19 3
-43 9 -52 11 -11 3 -23 -5 -34 -20z"/>
<path d="M10070 9719 c-14 -4 -75 -12 -137 -18 -62 -6 -129 -17 -149 -26 -20
-8 -51 -15 -68 -15 -18 0 -41 -6 -52 -14 -16 -13 -17 -18 -6 -36 11 -18 10
-21 -10 -29 -13 -5 -36 -13 -53 -16 -26 -6 -27 -8 -12 -16 13 -8 29 -5 60 10
23 10 72 29 109 40 60 18 77 19 150 10 46 -6 102 -14 126 -20 23 -5 54 -9 67
-9 22 0 25 4 23 31 -2 23 -10 35 -33 47 l-30 16 29 6 c16 3 31 10 33 16 6 19
-20 32 -47 23z m10 -79 c0 -5 -4 -10 -10 -10 -5 0 -10 5 -10 10 0 6 5 10 10
10 6 0 10 -4 10 -10z"/>
<path d="M7740 9540 c0 -5 5 -10 11 -10 5 0 7 5 4 10 -3 6 -8 10 -11 10 -2 0
-4 -4 -4 -10z"/>
<path d="M7730 9496 c0 -8 -6 -16 -12 -19 -7 -2 -10 -8 -6 -12 4 -4 14 -2 23
5 17 14 20 40 5 40 -5 0 -10 -6 -10 -14z"/>
<path d="M7690 9435 c-14 -16 -7 -45 11 -45 6 0 9 9 6 20 -3 13 0 20 10 20 8
0 11 5 8 10 -9 14 -21 12 -35 -5z"/>
<path d="M7687 9313 c-3 -3 -3 -11 0 -18 5 -14 33 -9 33 5 0 10 -26 20 -33 13z"/>
<path d="M7760 9260 c0 -11 4 -20 9 -20 5 0 16 -3 25 -6 24 -9 18 9 -9 29 -24
17 -25 17 -25 -3z"/>
<path d="M7717 9233 c-2 -4 2 -21 9 -38 l14 -30 -4 33 c-5 36 -11 48 -19 35z"/>
<path d="M7682 9205 c-11 -12 -10 -15 3 -15 8 0 15 7 15 15 0 18 -2 18 -18 0z"/>
<path d="M7780 9210 c0 -5 5 -10 10 -10 6 0 10 5 10 10 0 6 -4 10 -10 10 -5 0
-10 -4 -10 -10z"/>
<path d="M7850 9190 c19 -13 30 -13 30 0 0 6 -10 10 -22 10 -19 0 -20 -2 -8
-10z"/>
<path d="M9769 7724 c1 -24 7 -44 12 -44 14 0 11 77 -3 83 -10 3 -12 -7 -9
-39z"/>
<path d="M9564 7666 c-44 -44 -99 -98 -122 -118 -25 -22 -36 -38 -28 -41 7 -3
18 4 24 14 10 15 17 17 32 9 28 -15 37 -12 14 4 -10 8 -15 18 -11 22 4 5 12 2
17 -6 7 -11 11 -8 21 14 11 24 18 27 51 24 34 -3 37 -1 36 19 -2 21 -4 21 -25
8 -26 -18 -33 -19 -33 -5 0 6 11 15 24 21 13 6 26 20 29 30 3 12 11 16 26 12
15 -4 20 -2 16 8 -6 17 11 46 21 36 4 -3 1 -13 -6 -22 -11 -13 -9 -15 13 -15
14 0 34 -3 44 -7 16 -6 16 -5 4 10 -7 9 -19 17 -27 17 -7 0 -14 10 -16 22 -2
12 -7 22 -13 24 -5 1 -46 -35 -91 -80z"/>
<path d="M9730 7665 c-7 -8 -8 -15 -2 -15 5 0 15 7 22 15 7 8 8 15 2 15 -5 0
-15 -7 -22 -15z"/>
<path d="M9640 7660 c0 -5 -7 -10 -15 -10 -8 0 -15 -4 -15 -10 0 -5 7 -10 15
-10 8 0 15 -4 15 -10 0 -5 7 -10 15 -10 8 0 15 5 15 10 0 6 -7 10 -15 10 -8 0
-15 5 -15 10 0 6 7 10 15 10 8 0 15 5 15 10 0 6 -7 10 -15 10 -8 0 -15 -4 -15
-10z"/>
<path d="M9680 7652 c0 -10 22 -32 32 -32 15 0 8 15 -12 28 -11 7 -20 9 -20 4z"/>
<path d="M9840 7630 c0 -5 18 -10 40 -10 32 0 40 -4 40 -18 0 -10 -5 -23 -11
-29 -8 -8 -8 -13 0 -17 6 -4 11 -2 11 4 0 20 28 40 54 40 14 0 26 5 26 10 0 6
-18 10 -40 10 -22 0 -40 5 -40 10 0 6 -18 10 -40 10 -22 0 -40 -4 -40 -10z"/>
<path d="M5873 7614 c0 -7 4 -11 9 -8 4 3 8 -2 8 -10 0 -22 -16 -20 -34 5 -8
12 -19 18 -26 14 -7 -5 -8 -10 -3 -14 18 -12 23 -85 7 -106 -13 -17 -16 -18
-24 -5 -9 13 -11 13 -20 0 -9 -13 -11 -13 -20 0 -5 8 -10 11 -10 5 0 -5 5 -17
10 -25 9 -13 11 -13 20 0 9 13 11 13 19 1 8 -12 12 -12 25 2 9 8 16 20 16 25
0 13 27 23 45 16 8 -4 15 -12 15 -19 0 -9 8 -11 22 -7 l22 5 -23 9 c-17 6 -22
14 -18 28 3 11 1 23 -4 26 -5 3 -5 14 2 25 6 12 9 21 7 22 -2 1 -12 7 -24 14
-16 9 -21 8 -21 -3z m23 -55 c9 -16 -12 -33 -31 -25 -14 5 -15 9 -5 21 15 18
26 19 36 4z"/>
<path d="M9716 7602 c-2 -4 -1 -14 5 -22 7 -13 9 -12 9 2 0 9 6 19 13 21 7 3
6 6 -5 6 -9 1 -19 -3 -22 -7z"/>
<path d="M5801 7584 c0 -11 3 -14 6 -6 3 7 2 16 -1 19 -3 4 -6 -2 -5 -13z"/>
<path d="M9760 7584 c0 -8 5 -12 10 -9 6 3 10 10 10 16 0 5 -4 9 -10 9 -5 0
-10 -7 -10 -16z"/>
<path d="M9820 7593 c0 -5 8 -17 17 -28 14 -18 15 -18 9 -2 -3 10 -6 23 -6 28
0 5 -4 9 -10 9 -5 0 -10 -3 -10 -7z"/>
<path d="M9865 7590 c3 -5 13 -10 21 -10 8 0 14 5 14 10 0 6 -9 10 -21 10 -11
0 -17 -4 -14 -10z"/>
<path d="M10025 7591 c-6 -5 -26 -11 -45 -13 -19 -2 -35 -7 -35 -13 0 -20 46
-16 87 9 31 19 37 26 23 26 -12 0 -25 -4 -30 -9z"/>
<path d="M10060 7550 c0 -5 5 -10 10 -10 6 0 10 5 10 10 0 6 -4 10 -10 10 -5
0 -10 -4 -10 -10z"/>
<path d="M5570 7510 c0 -5 7 -10 15 -10 8 0 15 5 15 10 0 6 -7 10 -15 10 -8 0
-15 -4 -15 -10z"/>
<path d="M5870 7495 c0 -8 5 -15 10 -15 6 0 10 7 10 15 0 8 -4 15 -10 15 -5 0
-10 -7 -10 -15z"/>
<path d="M9355 7479 c-11 -17 1 -21 15 -4 8 9 8 15 2 15 -6 0 -14 -5 -17 -11z"/>
<path d="M9420 7469 c0 -5 5 -7 10 -4 6 3 10 8 10 11 0 2 -4 4 -10 4 -5 0 -10
-5 -10 -11z"/>
<path d="M5560 7450 c0 -5 9 -10 20 -10 11 0 29 -9 41 -21 22 -22 35 -20 26 6
-4 8 -16 15 -27 15 -11 0 -20 5 -20 10 0 6 -9 10 -20 10 -11 0 -20 -4 -20 -10z"/>
<path d="M9309 7440 c-13 -10 -20 -19 -16 -20 5 0 15 7 24 15 8 8 19 12 25 9
7 -4 8 -2 4 4 -9 15 -10 15 -37 -8z"/>
<path d="M5910 7439 c0 -5 5 -7 10 -4 6 3 10 8 10 11 0 2 -4 4 -10 4 -5 0 -10
-5 -10 -11z"/>
<path d="M5680 7430 c0 -5 5 -10 10 -10 6 0 10 5 10 10 0 6 -4 10 -10 10 -5 0
-10 -4 -10 -10z"/>
<path d="M5520 7405 c0 -8 5 -15 10 -15 6 0 10 7 10 15 0 8 -4 15 -10 15 -5 0
-10 -7 -10 -15z"/>
<path d="M5590 7410 c0 -21 17 -46 25 -38 4 4 0 17 -9 30 -10 14 -16 17 -16 8z"/>
<path d="M6197 7398 c7 -8 9 -18 5 -22 -4 -4 -2 -6 3 -4 6 1 21 -5 35 -15 15
-11 19 -17 10 -17 -11 -1 -11 -3 3 -11 9 -5 21 -8 26 -4 5 3 12 1 15 -4 4 -5
2 -12 -4 -16 -20 -13 -10 -24 14 -15 19 7 29 4 47 -13 13 -12 28 -21 32 -19 5
1 15 -3 23 -9 16 -13 27 -9 16 7 -4 6 -41 31 -82 58 -41 26 -93 59 -115 73
-22 15 -34 20 -28 11z"/>
<path d="M9235 7387 c-32 -24 -43 -30 -120 -76 -28 -17 -61 -39 -73 -50 l-23
-19 26 2 c14 0 25 7 25 14 0 6 5 12 10 12 6 0 10 -4 10 -10 0 -5 7 -10 16 -10
8 0 13 4 10 9 -8 13 4 42 15 35 5 -3 12 2 15 10 4 11 14 14 30 10 15 -4 24 -2
24 6 0 6 16 27 37 46 42 40 41 53 -2 21z"/>
<path d="M5660 7390 c0 -5 5 -10 10 -10 6 0 10 5 10 10 0 6 -4 10 -10 10 -5 0
-10 -4 -10 -10z"/>
<path d="M10180 7390 c-21 -7 -19 -8 18 -9 23 -1 42 4 42 9 0 12 -24 12 -60 0z"/>
<path d="M10104 7356 c-3 -13 -4 -37 -1 -52 3 -22 4 -19 6 14 0 23 6 42 11 42
6 0 10 5 10 10 0 20 -20 9 -26 -14z"/>
<path d="M5253 7353 c9 -9 20 -13 24 -9 4 4 1 11 -7 16 -25 16 -35 11 -17 -7z"/>
<path d="M10270 7359 c0 -5 5 -7 10 -4 6 3 10 8 10 11 0 2 -4 4 -10 4 -5 0
-10 -5 -10 -11z"/>
<path d="M5440 7350 c0 -5 6 -10 14 -10 8 0 18 5 21 10 3 6 -3 10 -14 10 -12
0 -21 -4 -21 -10z"/>
<path d="M5580 7350 c0 -13 41 -23 76 -17 22 3 19 4 -13 6 -24 0 -43 6 -43 11
0 6 -4 10 -10 10 -5 0 -10 -4 -10 -10z"/>
<path d="M5788 7353 c6 -2 18 -2 25 0 6 3 1 5 -13 5 -14 0 -19 -2 -12 -5z"/>
<path d="M10326 7351 c-9 -13 -2 -81 7 -81 4 0 5 16 1 35 -4 23 -2 35 5 35 6
0 11 5 11 10 0 13 -17 13 -24 1z"/>
<path d="M5095 7310 c-3 -5 1 -10 10 -10 9 0 13 5 10 10 -3 6 -8 10 -10 10 -2
0 -7 -4 -10 -10z"/>
<path d="M5520 7311 c0 -4 -10 -13 -22 -19 -23 -10 -23 -11 5 -11 15 -1 27 -7
27 -13 0 -9 4 -8 10 2 14 22 12 37 -5 44 -8 3 -15 2 -15 -3z"/>
<path d="M6246 7295 c4 -8 8 -15 10 -15 2 0 4 7 4 15 0 8 -4 15 -10 15 -5 0
-7 -7 -4 -15z"/>
<path d="M5340 7285 c-10 -12 -10 -15 3 -15 8 0 17 -6 20 -12 3 -10 7 -10 17
-1 15 14 6 43 -13 43 -8 0 -20 -7 -27 -15z"/>
<path d="M5110 7273 c0 -6 8 -17 18 -24 16 -13 16 -13 2 6 -8 11 -16 22 -17
24 -2 2 -3 0 -3 -6z"/>
<path d="M5590 7265 c0 -8 2 -15 4 -15 2 0 6 7 10 15 3 8 1 15 -4 15 -6 0 -10
-7 -10 -15z"/>
<path d="M5660 7266 c0 -9 5 -16 10 -16 6 0 10 4 10 9 0 6 -4 13 -10 16 -5 3
-10 -1 -10 -9z"/>
<path d="M10218 7253 c7 -3 16 -2 19 1 4 3 -2 6 -13 5 -11 0 -14 -3 -6 -6z"/>
<path d="M5440 7240 c0 -5 5 -10 10 -10 6 0 10 5 10 10 0 6 -4 10 -10 10 -5 0
-10 -4 -10 -10z"/>
<path d="M6467 7229 c7 -7 15 -10 18 -7 3 3 -2 9 -12 12 -14 6 -15 5 -6 -5z"/>
<path d="M5605 7221 c6 -11 45 -10 45 1 0 4 -12 8 -26 8 -14 0 -23 -4 -19 -9z"/>
<path d="M10260 7220 c0 -5 7 -10 16 -10 8 0 12 5 9 10 -3 6 -10 10 -16 10 -5
0 -9 -4 -9 -10z"/>
<path d="M5540 7210 c0 -5 5 -10 10 -10 6 0 10 5 10 10 0 6 -4 10 -10 10 -5 0
-10 -4 -10 -10z"/>
<path d="M8950 7210 c-9 -6 -10 -10 -3 -10 6 0 15 5 18 10 8 12 4 12 -15 0z"/>
<path d="M5170 7200 c8 -5 20 -10 25 -10 6 0 3 5 -5 10 -8 5 -19 10 -25 10 -5
0 -3 -5 5 -10z"/>
<path d="M10280 7184 c0 -8 5 -12 10 -9 6 3 10 10 10 16 0 5 -4 9 -10 9 -5 0
-10 -7 -10 -16z"/>
<path d="M10240 7180 c0 -5 5 -10 11 -10 5 0 7 5 4 10 -3 6 -8 10 -11 10 -2 0
-4 -4 -4 -10z"/>
<path d="M5245 7170 c-3 -5 -1 -10 4 -10 6 0 11 5 11 10 0 6 -2 10 -4 10 -3 0
-8 -4 -11 -10z"/>
<path d="M6600 7155 c7 -9 15 -13 17 -11 7 7 -7 26 -19 26 -6 0 -6 -6 2 -15z"/>
<path d="M8805 7142 c-30 -17 -45 -42 -25 -42 6 0 10 5 10 10 0 6 8 10 18 10
19 0 42 18 42 32 0 12 -11 9 -45 -10z"/>
<path d="M10255 7140 c-3 -5 -1 -10 4 -10 6 0 11 5 11 10 0 6 -2 10 -4 10 -3
0 -8 -4 -11 -10z"/>
<path d="M5220 7130 c0 -5 5 -10 11 -10 5 0 8 -4 4 -9 -3 -5 -1 -12 5 -16 11
-7 13 5 4 29 -7 18 -24 22 -24 6z"/>
<path d="M6630 7132 c0 -4 17 -14 38 -22 20 -8 40 -16 45 -18 4 -2 7 2 7 8 0
7 -9 14 -20 17 -11 3 -20 8 -20 12 0 4 -11 8 -25 9 -14 1 -25 -2 -25 -6z"/>
<path d="M5298 7113 c7 -3 16 -2 19 1 4 3 -2 6 -13 5 -11 0 -14 -3 -6 -6z"/>
<path d="M8724 7105 c-10 -8 -14 -15 -7 -15 19 0 43 11 43 21 0 13 -14 11 -36
-6z"/>
<path d="M5266 7093 c-4 -9 -3 -20 2 -25 6 -6 10 1 10 16 0 30 -3 32 -12 9z"/>
<path d="M5360 7090 c0 -5 5 -10 10 -10 6 0 10 5 10 10 0 6 -4 10 -10 10 -5 0
-10 -4 -10 -10z"/>
<path d="M6795 7070 c3 -5 14 -10 23 -10 15 0 15 2 2 10 -20 13 -33 13 -25 0z"/>
<path d="M8590 7054 c-32 -13 -32 -14 -5 -8 17 4 38 7 48 8 9 0 17 4 17 8 0
11 -20 9 -60 -8z"/>
<path d="M5296 7051 c-3 -5 3 -11 13 -14 14 -3 18 -1 14 9 -6 16 -19 18 -27 5z"/>
<path d="M6853 7045 c9 -8 25 -15 36 -15 11 0 26 -7 35 -15 8 -9 32 -15 58
-15 l43 1 -65 23 c-36 12 -78 26 -94 30 -26 6 -27 5 -13 -9z"/>
<path d="M8503 7033 c-13 -2 -23 -9 -23 -14 0 -14 24 -11 46 6 19 15 16 16
-23 8z"/>
<path d="M5336 6997 c3 -10 9 -15 12 -12 3 3 0 11 -7 18 -10 9 -11 8 -5 -6z"/>
<path d="M5410 6940 c0 -13 18 -22 24 -11 3 5 -1 11 -9 15 -8 3 -15 1 -15 -4z"/>
<path d="M5915 6460 c3 -5 8 -10 11 -10 2 0 4 5 4 10 0 6 -5 10 -11 10 -5 0
-7 -4 -4 -10z"/>
<path d="M5940 6446 c0 -2 7 -7 16 -10 8 -3 12 -2 9 4 -6 10 -25 14 -25 6z"/>
<path d="M6022 6411 c-15 -9 20 -32 135 -90 68 -34 73 -35 73 -22 0 5 -13 11
-30 14 -16 4 -38 14 -48 24 -10 10 -39 29 -65 42 -25 14 -44 29 -41 33 7 10
-7 10 -24 -1z"/>
<path d="M9275 6320 c-3 -5 -1 -10 4 -10 6 0 11 5 11 10 0 6 -2 10 -4 10 -3 0
-8 -4 -11 -10z"/>
<path d="M6245 6280 c3 -5 8 -10 11 -10 2 0 4 5 4 10 0 6 -5 10 -11 10 -5 0
-7 -4 -4 -10z"/>
<path d="M9121 6254 c-18 -8 -31 -17 -29 -20 7 -7 68 17 68 27 0 5 -1 9 -2 8
-2 0 -18 -7 -37 -15z"/>
<path d="M9025 6210 c-3 -5 1 -10 9 -10 9 0 16 5 16 10 0 6 -4 10 -9 10 -6 0
-13 -4 -16 -10z"/>
<path d="M6550 6152 c0 -4 14 -13 30 -19 17 -6 30 -10 30 -7 0 2 -13 10 -30
19 -16 9 -30 12 -30 7z"/>
<path d="M6640 6120 c8 -5 20 -10 25 -10 6 0 3 5 -5 10 -8 5 -19 10 -25 10 -5
0 -3 -5 5 -10z"/>
<path d="M6705 6090 c27 -12 43 -12 25 0 -8 5 -22 9 -30 9 -10 0 -8 -3 5 -9z"/>
<path d="M12840 4353 l0 -753 120 0 c66 0 122 0 124 0 3 0 6 339 8 753 l3 752
-127 0 -128 0 0 -752z"/>
<path d="M1510 5078 c0 -13 -1 -351 -2 -753 l-3 -730 138 -3 137 -3 0 315 0
315 241 3 c166 2 243 0 246 -8 2 -6 3 -149 1 -317 l-3 -307 138 0 137 0 0 755
0 755 -135 0 -135 0 -2 -307 -3 -308 -242 -2 -243 -3 -2 308 -3 307 -132 3
c-133 3 -133 3 -133 -20z"/>
<path d="M9423 5092 l-413 -2 0 -750 0 -750 135 0 135 0 0 305 0 305 225 0
225 0 0 131 0 130 -222 -2 -223 -2 -3 187 c-2 145 0 186 10 187 7 0 136 0 286
0 150 0 280 3 288 6 11 4 14 31 14 133 0 126 0 127 -22 126 -13 0 -209 -2
-435 -4z"/>
<path d="M12410 5082 c-91 -41 -125 -134 -80 -221 26 -52 75 -81 135 -81 118
0 184 118 128 228 -32 61 -126 100 -183 74z"/>
<path d="M6099 4627 c-153 -52 -239 -156 -284 -345 -24 -99 -16 -319 13 -403
47 -131 112 -213 212 -261 75 -37 123 -48 206 -48 213 0 370 134 430 370 13
51 15 93 11 200 -8 193 -43 293 -141 392 -107 108 -291 147 -447 95z m232
-240 c80 -54 103 -123 97 -297 -6 -161 -34 -227 -115 -269 -31 -16 -99 -14
-139 5 -78 37 -131 185 -119 332 7 96 18 135 53 180 54 74 154 96 223 49z"/>
<path d="M3104 4631 c-127 -16 -264 -67 -264 -98 0 -30 50 -183 60 -183 5 0
35 12 67 26 68 30 192 50 245 40 70 -13 118 -76 118 -156 l0 -26 -123 4 c-97
3 -137 1 -183 -13 -184 -53 -271 -166 -262 -340 7 -133 61 -220 165 -272 107
-52 296 -41 371 22 l29 24 16 -34 17 -35 105 0 106 0 -4 388 c-3 336 -6 394
-21 440 -32 97 -115 179 -201 201 -60 15 -172 20 -241 12z m166 -582 l50 -11
0 -89 c0 -105 -11 -129 -71 -153 -112 -45 -239 9 -239 101 0 76 41 128 117
149 61 16 80 17 143 3z"/>
<path d="M4766 4626 c-21 -8 -55 -28 -76 -45 -40 -32 -50 -31 -50 4 0 20 -7
23 -67 28 -38 4 -86 7 -108 7 l-40 0 0 -510 0 -511 123 -5 122 -5 0 343 c0
189 3 360 6 381 4 21 19 51 34 67 24 26 35 30 78 30 42 0 55 -5 80 -29 16 -17
32 -44 36 -62 3 -17 6 -188 6 -379 l0 -347 123 1 122 1 5 371 c6 408 5 407 69
434 66 27 144 -19 162 -96 4 -22 9 -191 9 -377 l0 -338 126 2 125 2 -3 401
c-3 394 -4 402 -27 461 -31 80 -107 155 -174 173 -110 28 -228 6 -309 -58
l-39 -31 -34 30 c-20 17 -50 38 -68 48 -44 23 -179 28 -231 9z"/>
<path d="M10177 4631 c-58 -8 -203 -57 -212 -71 -5 -7 27 -134 46 -182 l11
-26 31 18 c46 27 142 50 209 50 116 0 174 -49 185 -155 l6 -58 -29 6 c-117 25
-181 30 -254 17 -132 -22 -212 -76 -262 -178 -29 -59 -33 -76 -32 -147 0 -64
6 -92 26 -136 57 -124 140 -180 277 -187 98 -5 176 10 225 43 l35 24 3 -22 c3
-20 10 -22 73 -25 39 -2 94 0 123 3 l52 6 0 327 c0 180 -5 356 -10 391 -12 83
-60 181 -111 224 -74 64 -246 98 -392 78z m265 -598 c2 -5 2 -52 -2 -106 -4
-88 -8 -101 -28 -118 -64 -51 -186 -49 -247 4 -32 28 -38 40 -42 82 -3 38 1
58 15 81 32 50 73 64 194 64 59 0 108 -3 110 -7z"/>
<path d="M11235 4631 c-45 -12 -86 -36 -122 -71 l-33 -32 0 41 c0 40 -1 41
-32 41 -18 0 -63 3 -100 7 l-68 6 0 -511 0 -511 118 -3 c64 -2 122 -2 127 0 6
1 10 133 10 370 0 327 2 371 17 393 39 60 123 62 183 5 l35 -33 0 -367 0 -366
73 0 c39 0 96 -3 125 -6 l52 -7 0 374 c0 410 -1 402 60 434 62 32 127 8 160
-60 19 -39 20 -63 20 -393 l0 -352 33 4 c17 2 74 4 125 5 l93 1 -2 333 c-1
182 -5 368 -9 413 -13 138 -82 239 -189 278 -66 24 -198 19 -251 -9 -49 -25
-100 -68 -100 -82 0 -21 -14 -15 -49 20 -17 19 -52 44 -76 56 -47 24 -151 35
-200 22z"/>
<path d="M4134 4606 c-27 -13 -66 -42 -87 -66 l-36 -42 -3 58 -3 59 -115 0
-115 0 -3 -513 -2 -513 127 3 128 3 0 330 c0 370 0 371 72 420 32 21 49 25
109 25 l72 0 6 53 c5 48 9 147 7 190 -1 27 -93 23 -157 -7z"/>
<path d="M7206 4610 c-27 -11 -62 -32 -78 -46 l-28 -28 0 37 0 38 -122 -3
-123 -3 -3 -502 c-1 -277 1 -503 5 -503 5 -1 62 -2 128 -3 l120 -2 -3 340 c-4
385 -1 405 65 446 63 39 159 11 192 -56 11 -22 13 -96 12 -355 -1 -180 1 -339
5 -354 l6 -27 122 3 121 3 -3 365 c-2 205 -8 389 -14 420 -20 107 -82 195
-163 231 -55 25 -173 25 -239 -1z"/>
<path d="M13298 4623 c-84 -5 -84 -3 -28 -169 22 -65 71 -216 109 -334 38
-118 88 -264 111 -325 65 -172 67 -182 40 -264 -28 -87 -71 -158 -105 -171
-34 -13 -91 -15 -141 -6 l-40 7 -11 -113 c-6 -62 -7 -117 -2 -122 5 -5 64 -9
131 -10 111 0 129 3 179 26 154 70 188 140 369 758 26 91 84 288 129 438 45
151 81 276 81 278 0 2 -56 4 -123 4 l-124 0 -21 -72 c-40 -139 -152 -575 -152
-592 0 -48 -20 2 -64 157 -48 167 -63 219 -123 417 l-29 95 -60 1 c-32 0 -89
-1 -126 -3z"/>
<path d="M7730 4605 c0 -8 9 -38 19 -67 11 -29 34 -100 51 -158 61 -201 215
-665 244 -733 17 -38 16 -40 -15 -124 -22 -57 -46 -100 -75 -131 l-42 -47 -91
0 -91 0 0 -86 c0 -48 -3 -101 -6 -119 l-7 -32 139 4 c159 4 202 18 275 92 69
68 110 168 252 621 60 190 236 776 237 788 0 4 -57 7 -128 7 l-127 0 -64 -242
c-35 -134 -73 -281 -84 -328 -31 -134 -29 -134 -71 12 -20 73 -43 153 -51 178
-7 25 -25 90 -40 145 -14 55 -36 130 -47 168 l-20 67 -129 0 c-107 0 -129 -3
-129 -15z"/>
<path d="M12330 4110 l0 -510 130 0 130 0 0 510 0 510 -130 0 -130 0 0 -510z"/>
</g>
</svg>
